<?xml version="1.0" encoding="UTF-8" standalone="no"?>
<svg
   xmlns:dc="http://purl.org/dc/elements/1.1/"
   xmlns:cc="http://creativecommons.org/ns#"
   xmlns:rdf="http://www.w3.org/1999/02/22-rdf-syntax-ns#"
   xmlns:svg="http://www.w3.org/2000/svg"
   xmlns="http://www.w3.org/2000/svg"
   xmlns:sodipodi="http://sodipodi.sourceforge.net/DTD/sodipodi-0.dtd"
   xmlns:inkscape="http://www.inkscape.org/namespaces/inkscape"
   viewBox="0 0 1400.97 976.05"
   version="1.1"
   id="svg438"
   sodipodi:docname="sitja2.svg"
   inkscape:version="0.92.4 (e05b578f1, 2019-02-26, custom)">
  <metadata
     id="metadata442">
    <rdf:RDF>
      <cc:Work
         rdf:about="">
        <dc:format>image/svg+xml</dc:format>
        <dc:type
           rdf:resource="http://purl.org/dc/dcmitype/StillImage" />
        <dc:title></dc:title>
      </cc:Work>
    </rdf:RDF>
  </metadata>
  <sodipodi:namedview
     pagecolor="#ffffff"
     bordercolor="#666666"
     borderopacity="1"
     objecttolerance="10"
     gridtolerance="10"
     guidetolerance="10"
     inkscape:pageopacity="0"
     inkscape:pageshadow="2"
     inkscape:window-width="1920"
     inkscape:window-height="1017"
     id="namedview440"
     showgrid="false"
     inkscape:zoom="0.61434"
     inkscape:cx="580.80157"
     inkscape:cy="493.81346"
     inkscape:window-x="-8"
     inkscape:window-y="-8"
     inkscape:window-maximized="1"
     inkscape:current-layer="svg438" />
  <defs
     id="defs229">
    <style
       id="style227">.cls-1{isolation:isolate;}.cls-2,.cls-6,.cls-7{fill:#b8b0ab;}.cls-3{fill:#323537;}.cls-4{fill:#8e8986;}.cls-5{fill:#797673;}.cls-6{mix-blend-mode:multiply;}.cls-7{opacity:0.4;mix-blend-mode:screen;}.cls-8{fill:#cbc7c0;}.cls-12,.cls-9{fill:none;}.cls-9{stroke:#8e8986;stroke-width:9px;}.cls-10,.cls-11,.cls-12,.cls-9{stroke-miterlimit:10;}.cls-10{fill:#fff;}.cls-10,.cls-11,.cls-12{stroke:#000;}.cls-10,.cls-11{stroke-width:4px;}.cls-11,.cls-14{fill:#327f3d;}.cls-12{stroke-width:3px;}.cls-13{fill:#4dc463;}.cls-15{fill:#63ea73;}.cls-16{fill:#e83636;}.cls-17{fill:#8c2a2a;}.cls-18{fill:#ef7b7b;}</style>
  </defs>
  <g
     class="cls-1"
     id="g436">
    <g
       id="svg2">
      <rect
         class="cls-2"
         x="730.17"
         y="892.69"
         width="5.57"
         height="82.07"
         id="rect231" />
      <path
         class="cls-3"
         d="M1303,1160.16h-5.58c-.58,0-1.06-.12-1.06-.26v-82.07c0-.14.48-.25,1.06-.25H1303c.6,0,1.06.11,1.06.25v82.07C1304.1,1160,1303.64,1160.16,1303,1160.16Zm-4.52-.51H1302v-81.57h-3.46Z"
         transform="translate(-567.3 -185.15)"
         id="path233" />
      <rect
         class="cls-2"
         x="763.03"
         y="892.69"
         width="5.58"
         height="82.07"
         id="rect235" />
      <path
         class="cls-3"
         d="M1335.91,1160.16h-5.58c-.59,0-1.06-.12-1.06-.26v-82.07c0-.14.47-.25,1.06-.25h5.58c.59,0,1.06.11,1.06.25v82.07C1337,1160,1336.5,1160.16,1335.91,1160.16Zm-4.53-.51h3.47v-81.57h-3.47Z"
         transform="translate(-567.3 -185.15)"
         id="path237" />
      <rect
         class="cls-4"
         x="727.33"
         y="973.81"
         width="44.12"
         height="1.99"
         id="rect239" />
      <path
         class="cls-3"
         d="M1338.74,1161.2h-44.11c-.59,0-1.06-.12-1.06-.26v-2c0-.14.47-.26,1.06-.26h44.11c.59,0,1.07.12,1.07.26v2C1339.81,1161.08,1339.33,1161.2,1338.74,1161.2Zm-43-.51h42v-1.48h-42Z"
         transform="translate(-567.3 -185.15)"
         id="path241" />
      <rect
         class="cls-2"
         x="630.45"
         y="892.69"
         width="5.57"
         height="82.07"
         id="rect243" />
      <path
         class="cls-3"
         d="M1203.32,1160.16h-5.58c-.58,0-1.06-.12-1.06-.26v-82.07c0-.14.48-.25,1.06-.25h5.58c.59,0,1.07.11,1.07.25v82.07C1204.39,1160,1203.91,1160.16,1203.32,1160.16Zm-4.52-.51h3.47v-81.57h-3.47Z"
         transform="translate(-567.3 -185.15)"
         id="path245" />
      <rect
         class="cls-2"
         x="663.31"
         y="892.69"
         width="5.58"
         height="82.07"
         id="rect247" />
      <path
         class="cls-3"
         d="M1236.19,1160.16h-5.59c-.58,0-1.06-.12-1.06-.26v-82.07c0-.14.48-.25,1.06-.25h5.59c.58,0,1.06.11,1.06.25v82.07C1237.25,1160,1236.77,1160.16,1236.19,1160.16Zm-4.53-.51h3.46v-81.57h-3.46Z"
         transform="translate(-567.3 -185.15)"
         id="path249" />
      <rect
         class="cls-4"
         x="627.61"
         y="973.81"
         width="44.12"
         height="1.99"
         id="rect251" />
      <path
         class="cls-3"
         d="M1239,1161.2h-44.12c-.58,0-1.06-.12-1.06-.26v-2c0-.14.48-.26,1.06-.26H1239c.58,0,1,.12,1,.26v2C1240.08,1161.08,1239.61,1161.2,1239,1161.2Zm-43.06-.51h42v-1.48h-42Z"
         transform="translate(-567.3 -185.15)"
         id="path253" />
      <rect
         class="cls-2"
         x="591.23"
         y="884.13"
         width="214.49"
         height="8.55"
         id="rect255" />
      <path
         class="cls-5"
         d="M1373,1078.08H1158.53c-.59,0-1.07-.11-1.07-.25v-8.55c0-.14.48-.25,1.07-.25H1373c.58,0,1.06.11,1.06.25v8.55C1374.07,1078,1373.59,1078.08,1373,1078.08Zm-213.44-.5h212.37v-8H1159.57Z"
         transform="translate(-567.3 -185.15)"
         id="path257" />
      <rect
         class="cls-6"
         x="591.23"
         y="884.13"
         width="214.49"
         height="3.29"
         id="rect259" />
      <rect
         class="cls-2"
         x="601.76"
         y="892.69"
         width="193.41"
         height="2.06"
         id="rect261" />
      <path
         class="cls-5"
         d="M1362.47,1080.14H1169.06c-.59,0-1.06-.11-1.06-.25v-2.06c0-.14.47-.25,1.06-.25h193.41c.59,0,1.06.11,1.06.25v2.06C1363.53,1080,1363.06,1080.14,1362.47,1080.14Zm-192.35-.5h191.31v-1.56H1170.12Z"
         transform="translate(-567.3 -185.15)"
         id="path263" />
      <rect
         class="cls-2"
         x="565.38"
         y="543.33"
         width="271.07"
         height="341.46"
         id="rect265" />
      <path
         class="cls-5"
         d="M1403.74,1070.84H1132.67a1,1,0,0,1-1.06-.9V728.48a1,1,0,0,1,1.06-.9h271.07a1,1,0,0,1,1.07.9v341.46A1,1,0,0,1,1403.74,1070.84Zm-270-1.81h269V729.4h-269Z"
         transform="translate(-567.3 -185.15)"
         id="path267" />
      <rect
         class="cls-6"
         x="784.72"
         y="543.33"
         width="51.72"
         height="341.46"
         id="rect269" />
      <rect
         class="cls-6"
         x="565.38"
         y="543.33"
         width="33"
         height="341.46"
         id="rect271" />
      <rect
         class="cls-7"
         x="636.48"
         y="543.33"
         width="11.3"
         height="341.46"
         id="rect273" />
      <polygon
         class="cls-2"
         points="745.28 509.75 662.14 509 662.35 491.83 745.49 492.56 745.28 509.75"
         id="polygon275" />
      <path
         class="cls-4"
         d="M1312.58,695.79h0l-83.13-.74a1.14,1.14,0,0,1-.74-.27.87.87,0,0,1-.29-.65l.21-17.18a1,1,0,0,1,1.06-.89l83.13.74a1.18,1.18,0,0,1,.75.27.83.83,0,0,1,.31.65l-.22,17.18A1,1,0,0,1,1312.58,695.79Zm-82.07-2.55,81,.73.2-15.36-81-.72Z"
         transform="translate(-567.3 -185.15)"
         id="path277" />
      <polygon
         class="cls-8"
         points="836.48 543.33 747.66 501 710.35 500.66 697.78 500.55 660.46 500.21 565.38 543.33 836.48 543.33"
         id="polygon279" />
      <path
         class="cls-4"
         d="M1403.78,729.4H1132.67a1.07,1.07,0,0,1-1-.7.87.87,0,0,1,.55-1l95.07-43.13a1.57,1.57,0,0,1,.5-.11l87.21.79a1.12,1.12,0,0,1,.51.11l88.81,42.35a.88.88,0,0,1,.51,1A1.07,1.07,0,0,1,1403.78,729.4Zm-266.84-1.82h262.75l-85-40.55-86.66-.76Z"
         transform="translate(-567.3 -185.15)"
         id="path281" />
      <path
         class="cls-6"
         d="M1352,728.48h51.76L1315,686.14l-9.68-.09C1313.77,694,1345.32,722.69,1352,728.48Z"
         transform="translate(-567.3 -185.15)"
         id="path283" />
      <path
         class="cls-6"
         d="M1228.6,690.77c3-1.74,6.18-3.45,9.24-5.32l-10.08-.09-95.09,43.12h32.42C1167.63,726.87,1219.81,695.9,1228.6,690.77Z"
         transform="translate(-567.3 -185.15)"
         id="path285" />
      <polygon
         class="cls-2"
         points="279.01 324.35 163.28 323.31 163.58 299.41 279.31 300.44 279.01 324.35"
         id="polygon287" />
      <path
         class="cls-4"
         d="M846.3,510.75h0l-115.72-1a1.59,1.59,0,0,1-1-.37,1.26,1.26,0,0,1-.41-.91l.3-23.91a1.35,1.35,0,0,1,1.48-1.24l115.7,1a1.66,1.66,0,0,1,1,.38,1.18,1.18,0,0,1,.43.91l-.3,23.91A1.37,1.37,0,0,1,846.3,510.75Zm-114.22-3.54,112.76,1,.27-21.37-112.77-1Z"
         transform="translate(-567.3 -185.15)"
         id="path289" />
      <polygon
         class="cls-8"
         points="405.96 371.1 282.33 312.17 230.39 311.7 212.89 311.55 160.94 311.09 28.59 371.1 405.96 371.1"
         id="polygon291" />
      <path
         class="cls-4"
         d="M973.25,557.53H595.89a1.49,1.49,0,0,1-1.44-1,1.22,1.22,0,0,1,.76-1.43l132.34-60a2.1,2.1,0,0,1,.7-.16l121.39,1.1a1.41,1.41,0,0,1,.7.16L974,555.15a1.23,1.23,0,0,1,.72,1.43A1.5,1.5,0,0,1,973.25,557.53ZM601.83,555H967.56L849.23,498.56,728.6,497.5Z"
         transform="translate(-567.3 -185.15)"
         id="path293" />
      <path
         class="cls-6"
         d="M901.21,556.25h72L849.63,497.32l-13.47-.13C848,508.25,891.88,548.2,901.21,556.25Z"
         transform="translate(-567.3 -185.15)"
         id="path295" />
      <path
         class="cls-6"
         d="M729.42,503.77c4.16-2.43,8.6-4.81,12.86-7.41l-14-.13-132.35,60H641C644.54,554,717.18,510.91,729.42,503.77Z"
         transform="translate(-567.3 -185.15)"
         id="path297" />
      <rect
         class="cls-2"
         x="1160.24"
         y="892.69"
         width="5.57"
         height="82.07"
         id="rect299" />
      <path
         class="cls-3"
         d="M1733.12,1160.16h-5.58c-.58,0-1.06-.12-1.06-.26v-82.07c0-.14.48-.25,1.06-.25h5.58c.6,0,1.06.11,1.06.25v82.07C1734.18,1160,1733.72,1160.16,1733.12,1160.16Zm-4.52-.51h3.46v-81.57h-3.46Z"
         transform="translate(-567.3 -185.15)"
         id="path301" />
      <rect
         class="cls-2"
         x="1193.11"
         y="892.69"
         width="5.58"
         height="82.07"
         id="rect303" />
      <path
         class="cls-3"
         d="M1766,1160.16h-5.58c-.59,0-1.06-.12-1.06-.26v-82.07c0-.14.47-.25,1.06-.25H1766c.59,0,1.06.11,1.06.25v82.07C1767.05,1160,1766.58,1160.16,1766,1160.16Zm-4.53-.51h3.47v-81.57h-3.47Z"
         transform="translate(-567.3 -185.15)"
         id="path305" />
      <rect
         class="cls-4"
         x="1157.41"
         y="973.81"
         width="44.12"
         height="1.99"
         id="rect307" />
      <path
         class="cls-3"
         d="M1768.82,1161.2h-44.11c-.59,0-1.06-.12-1.06-.26v-2c0-.14.47-.26,1.06-.26h44.11c.59,0,1.07.12,1.07.26v2C1769.89,1161.08,1769.41,1161.2,1768.82,1161.2Zm-43-.51h42v-1.48h-42Z"
         transform="translate(-567.3 -185.15)"
         id="path309" />
      <rect
         class="cls-2"
         x="1060.53"
         y="892.69"
         width="5.57"
         height="82.07"
         id="rect311" />
      <path
         class="cls-3"
         d="M1633.4,1160.16h-5.58c-.58,0-1.06-.12-1.06-.26v-82.07c0-.14.48-.25,1.06-.25h5.58c.59,0,1.07.11,1.07.25v82.07C1634.47,1160,1634,1160.16,1633.4,1160.16Zm-4.52-.51h3.47v-81.57h-3.47Z"
         transform="translate(-567.3 -185.15)"
         id="path313" />
      <rect
         class="cls-2"
         x="1093.39"
         y="892.69"
         width="5.58"
         height="82.07"
         id="rect315" />
      <path
         class="cls-3"
         d="M1666.26,1160.16h-5.58c-.58,0-1.06-.12-1.06-.26v-82.07c0-.14.48-.25,1.06-.25h5.58c.59,0,1.07.11,1.07.25v82.07C1667.33,1160,1666.85,1160.16,1666.26,1160.16Zm-4.52-.51h3.45v-81.57h-3.45Z"
         transform="translate(-567.3 -185.15)"
         id="path317" />
      <rect
         class="cls-4"
         x="1057.69"
         y="973.81"
         width="44.12"
         height="1.99"
         id="rect319" />
      <path
         class="cls-3"
         d="M1669.11,1161.2H1625c-.58,0-1.06-.12-1.06-.26v-2c0-.14.48-.26,1.06-.26h44.12c.58,0,1.05.12,1.05.26v2C1670.16,1161.08,1669.69,1161.2,1669.11,1161.2Zm-43.06-.51h42v-1.48h-42Z"
         transform="translate(-567.3 -185.15)"
         id="path321" />
      <rect
         class="cls-2"
         x="1021.31"
         y="884.13"
         width="214.49"
         height="8.55"
         id="rect323" />
      <path
         class="cls-5"
         d="M1803.09,1078.08H1588.6c-.58,0-1.06-.11-1.06-.25v-8.55c0-.14.48-.25,1.06-.25h214.49c.58,0,1.06.11,1.06.25v8.55C1804.15,1078,1803.67,1078.08,1803.09,1078.08Zm-213.44-.5H1802v-8H1589.65Z"
         transform="translate(-567.3 -185.15)"
         id="path325" />
      <rect
         class="cls-6"
         x="1021.31"
         y="884.13"
         width="214.49"
         height="3.29"
         id="rect327" />
      <rect
         class="cls-2"
         x="1031.84"
         y="892.69"
         width="193.41"
         height="2.06"
         id="rect329" />
      <path
         class="cls-5"
         d="M1792.55,1080.14H1599.14c-.6,0-1.07-.11-1.07-.25v-2.06c0-.14.47-.25,1.07-.25h193.41c.59,0,1.06.11,1.06.25v2.06C1793.61,1080,1793.14,1080.14,1792.55,1080.14Zm-192.35-.5h191.3v-1.56H1600.2Z"
         transform="translate(-567.3 -185.15)"
         id="path331" />
      <rect
         class="cls-2"
         x="995.45"
         y="543.33"
         width="271.07"
         height="341.46"
         id="rect333" />
      <path
         class="cls-5"
         d="M1833.82,1070.84H1562.75a1,1,0,0,1-1.06-.9V728.48a1,1,0,0,1,1.06-.9h271.07a1,1,0,0,1,1.07.9v341.46A1,1,0,0,1,1833.82,1070.84Zm-270-1.81h269V729.4h-269Z"
         transform="translate(-567.3 -185.15)"
         id="path335" />
      <rect
         class="cls-6"
         x="1214.8"
         y="543.33"
         width="51.72"
         height="341.46"
         id="rect337" />
      <rect
         class="cls-6"
         x="995.45"
         y="543.33"
         width="33"
         height="341.46"
         id="rect339" />
      <rect
         class="cls-7"
         x="1066.56"
         y="543.33"
         width="11.3"
         height="341.46"
         id="rect341" />
      <polygon
         class="cls-2"
         points="1175.36 509.75 1092.22 509 1092.43 491.83 1175.57 492.56 1175.36 509.75"
         id="polygon343" />
      <path
         class="cls-4"
         d="M1742.65,695.79h0l-83.13-.74a1.14,1.14,0,0,1-.74-.27.87.87,0,0,1-.29-.65l.21-17.18a1,1,0,0,1,1.06-.89l83.13.74a1.18,1.18,0,0,1,.75.27.85.85,0,0,1,.3.65l-.21,17.18A1,1,0,0,1,1742.65,695.79Zm-82.06-2.55,81,.73.2-15.36-81-.72Z"
         transform="translate(-567.3 -185.15)"
         id="path345" />
      <polygon
         class="cls-8"
         points="1266.56 543.33 1177.74 501 1140.43 500.66 1127.86 500.55 1090.54 500.21 995.46 543.33 1266.56 543.33"
         id="polygon347" />
      <path
         class="cls-4"
         d="M1833.86,729.4H1562.75a1.07,1.07,0,0,1-1-.7.86.86,0,0,1,.55-1l95.07-43.13a1.51,1.51,0,0,1,.5-.11l87.21.79a1.12,1.12,0,0,1,.51.11l88.81,42.35a.88.88,0,0,1,.51,1A1.08,1.08,0,0,1,1833.86,729.4ZM1567,727.58h262.75l-85-40.55-86.66-.76Z"
         transform="translate(-567.3 -185.15)"
         id="path349" />
      <path
         class="cls-6"
         d="M1782.1,728.48h51.76L1745,686.14l-9.68-.09C1743.85,694,1775.4,722.69,1782.1,728.48Z"
         transform="translate(-567.3 -185.15)"
         id="path351" />
      <path
         class="cls-6"
         d="M1658.68,690.77c3-1.74,6.18-3.45,9.24-5.32l-10.09-.09-95.08,43.12h32.42C1597.71,726.87,1649.89,695.9,1658.68,690.77Z"
         transform="translate(-567.3 -185.15)"
         id="path353" />
      <rect
         class="cls-2"
         x="257.99"
         y="859.96"
         width="7.76"
         height="114.25"
         id="rect355" />
      <path
         class="cls-3"
         d="M833.05,1159.7h-7.76c-.82,0-1.48-.16-1.48-.35V1045.1c0-.19.66-.35,1.48-.35h7.76c.83,0,1.48.16,1.48.35v114.25C834.53,1159.54,833.88,1159.7,833.05,1159.7Zm-6.28-.7h4.81V1045.45h-4.81Z"
         transform="translate(-567.3 -185.15)"
         id="path357" />
      <rect
         class="cls-2"
         x="303.74"
         y="859.96"
         width="7.77"
         height="114.25"
         id="rect359" />
      <path
         class="cls-3"
         d="M878.81,1159.7H871c-.81,0-1.48-.16-1.48-.35V1045.1c0-.19.67-.35,1.48-.35h7.77c.82,0,1.48.16,1.48.35v114.25C880.29,1159.54,879.63,1159.7,878.81,1159.7Zm-6.3-.7h4.82V1045.45h-4.82Z"
         transform="translate(-567.3 -185.15)"
         id="path361" />
      <rect
         class="cls-4"
         x="254.05"
         y="972.89"
         width="61.41"
         height="2.77"
         id="rect363" />
      <path
         class="cls-3"
         d="M882.76,1161.15H821.34c-.81,0-1.48-.16-1.48-.35V1158c0-.19.67-.35,1.48-.35h61.42c.81,0,1.47.16,1.47.35v2.77C884.23,1161,883.57,1161.15,882.76,1161.15Zm-59.94-.7h58.46v-2.07H822.82Z"
         transform="translate(-567.3 -185.15)"
         id="path365" />
      <rect
         class="cls-2"
         x="119.18"
         y="859.96"
         width="7.76"
         height="114.25"
         id="rect367" />
      <path
         class="cls-3"
         d="M694.23,1159.7h-7.76c-.81,0-1.47-.16-1.47-.35V1045.1c0-.19.66-.35,1.47-.35h7.76c.83,0,1.49.16,1.49.35v114.25C695.72,1159.54,695.06,1159.7,694.23,1159.7Zm-6.29-.7h4.84V1045.45h-4.84Z"
         transform="translate(-567.3 -185.15)"
         id="path369" />
      <rect
         class="cls-2"
         x="164.92"
         y="859.96"
         width="7.77"
         height="114.25"
         id="rect371" />
      <path
         class="cls-3"
         d="M740,1159.7h-7.77c-.82,0-1.48-.16-1.48-.35V1045.1c0-.19.66-.35,1.48-.35H740c.81,0,1.48.16,1.48.35v114.25C741.47,1159.54,740.8,1159.7,740,1159.7Zm-6.3-.7h4.81V1045.45h-4.81Z"
         transform="translate(-567.3 -185.15)"
         id="path373" />
      <rect
         class="cls-4"
         x="115.23"
         y="972.89"
         width="61.41"
         height="2.77"
         id="rect375" />
      <path
         class="cls-3"
         d="M743.94,1161.15H682.53c-.81,0-1.48-.16-1.48-.35V1158c0-.19.67-.35,1.48-.35h61.41c.82,0,1.47.16,1.47.35v2.77C745.41,1161,744.76,1161.15,743.94,1161.15Zm-59.94-.7h58.46v-2.07H684Z"
         transform="translate(-567.3 -185.15)"
         id="path377" />
      <rect
         class="cls-2"
         x="64.58"
         y="848.05"
         width="298.58"
         height="11.91"
         id="rect379" />
      <path
         class="cls-5"
         d="M930.46,1045.45H631.88c-.81,0-1.48-.15-1.48-.35v-11.9c0-.2.67-.36,1.48-.36H930.46c.8,0,1.47.16,1.47.36v11.9C931.93,1045.3,931.26,1045.45,930.46,1045.45Zm-297.12-.7H929v-11.2H633.34Z"
         transform="translate(-567.3 -185.15)"
         id="path381" />
      <rect
         class="cls-6"
         x="64.58"
         y="848.05"
         width="298.58"
         height="4.58"
         id="rect383" />
      <rect
         class="cls-2"
         x="79.25"
         y="859.96"
         width="269.25"
         height="2.87"
         id="rect385" />
      <path
         class="cls-5"
         d="M915.79,1048.32H646.54c-.82,0-1.48-.15-1.48-.35v-2.87c0-.19.66-.35,1.48-.35H915.79c.81,0,1.48.16,1.48.35V1048C917.27,1048.17,916.6,1048.32,915.79,1048.32Zm-267.77-.7H914.33v-2.17H648Z"
         transform="translate(-567.3 -185.15)"
         id="path387" />
      <rect
         class="cls-2"
         x="28.59"
         y="373.63"
         width="377.34"
         height="475.34"
         id="rect389" />
      <path
         class="cls-5"
         d="M973.23,1035.37H595.89a1.39,1.39,0,0,1-1.48-1.26V558.78a1.38,1.38,0,0,1,1.48-1.25H973.23a1.37,1.37,0,0,1,1.49,1.25v475.33A1.38,1.38,0,0,1,973.23,1035.37Zm-375.86-2.53h374.4V560.06H597.37Z"
         transform="translate(-567.3 -185.15)"
         id="path391" />
      <rect
         class="cls-6"
         x="333.94"
         y="373.63"
         width="72"
         height="475.34"
         id="rect393" />
      <rect
         class="cls-6"
         x="28.59"
         y="373.63"
         width="45.94"
         height="475.34"
         id="rect395" />
      <rect
         class="cls-7"
         x="127.58"
         y="373.63"
         width="15.73"
         height="475.34"
         id="rect397" />
      <line
         class="cls-9"
         x1="221.3"
         y1="298.65"
         x2="221.3"
         y2="254.24"
         id="line399" />
      <line
         class="cls-9"
         x1="703.82"
         y1="491.83"
         x2="703.82"
         y2="447.41"
         id="line401" />
      <polyline
         class="cls-9"
         points="0 134.5 703.82 134.5 703.82 348"
         id="polyline403" />
      <polygon
         class="cls-10"
         points="669.11 447.42 737.36 447.42 669.11 348 737.36 348 669.11 447.42"
         id="polygon405" />
      <line
         class="cls-11"
         x1="657.29"
         y1="397.71"
         x2="703.23"
         y2="397.71"
         id="line407" />
      <rect
         class="cls-12"
         x="1176.3"
         y="569.71"
         width="70.28"
         height="26.29"
         transform="translate(61.29 1609.15) rotate(-90)"
         id="rect409" />
      <line
         class="cls-9"
         x1="221.28"
         y1="154.82"
         x2="221.28"
         y2="134.5"
         id="line411" />
      <polygon
         class="cls-10"
         points="187.15 254.24 255.41 254.24 187.15 154.82 255.41 154.82 187.15 254.24"
         id="polygon413" />
      <line
         class="cls-11"
         x1="175.33"
         y1="204.53"
         x2="221.28"
         y2="204.53"
         id="line415" />
      <rect
         class="cls-12"
         x="694.35"
         y="376.53"
         width="70.28"
         height="26.29"
         transform="translate(-227.48 934.02) rotate(-90)"
         id="rect417" />
    </g>
    <rect
       class="cls-13"
       x="565.52997"
       width="271"
       height="169.39"
       id="rect419-4"
       inkscape:label="{&quot;attr&quot;:&quot;color&quot;,&quot;list&quot;:[{&quot;data&quot;:&quot;-0.5|0.5&quot;,&quot;param&quot;:&quot;#E83636&quot;,&quot;tag&quot;:&quot;TAG1&quot;},{&quot;data&quot;:&quot;0.5|1.5&quot;,&quot;param&quot;:&quot;#4DC463&quot;,&quot;tag&quot;:&quot;TAG1&quot;}]}"
       y="715.40002"
       style="fill:#4dc463" />
    <rect
       class="cls-14"
       x="565.52997"
       width="33"
       height="169.39"
       id="rect421-2"
       inkscape:label="{&quot;attr&quot;:&quot;color&quot;,&quot;list&quot;:[{&quot;data&quot;:&quot;-0.5|0.5&quot;,&quot;param&quot;:&quot;#8C2A2A&quot;,&quot;tag&quot;:&quot;TAG1&quot;},{&quot;data&quot;:&quot;0.5|1.5&quot;,&quot;param&quot;:&quot;#327F3D&quot;,&quot;tag&quot;:&quot;TAG1&quot;}]}"
       y="715.40002"
       style="fill:#327f3d" />
    <rect
       class="cls-15"
       x="636.47998"
       width="11.3"
       height="169.39"
       id="rect423-1"
       inkscape:label="{&quot;attr&quot;:&quot;color&quot;,&quot;list&quot;:[{&quot;data&quot;:&quot;-0.5|.5&quot;,&quot;param&quot;:&quot;#8C2A2A&quot;,&quot;tag&quot;:&quot;TAG1&quot;},{&quot;data&quot;:&quot;0.5|1.5&quot;,&quot;param&quot;:&quot;#63EA73&quot;,&quot;tag&quot;:&quot;TAG1&quot;}]}"
       y="715.40002"
       style="fill:#63ea73" />
    <rect
       inkscape:label="{&quot;attr&quot;:&quot;color&quot;,&quot;list&quot;:[{&quot;data&quot;:&quot;-0.5|0.5&quot;,&quot;param&quot;:&quot;#8C2A2A&quot;,&quot;tag&quot;:&quot;TAG1&quot;},{&quot;data&quot;:&quot;0.5|1.5&quot;,&quot;param&quot;:&quot;#327F3D&quot;,&quot;tag&quot;:&quot;TAG1&quot;}]}"
       id="rect459-9"
       height="169.39"
       width="51.809937"
       x="784.71997"
       class="cls-14"
       y="715.40002"
       style="fill:#327f3d;stroke-width:1.25299561" />
  </g>
  <rect
     class="cls-13"
     x="565.52997"
     width="271"
     height="169.39"
     id="rect419-0"
     inkscape:label="{&quot;attr&quot;:&quot;color&quot;,&quot;list&quot;:[{&quot;data&quot;:&quot;-0.5|0.5&quot;,&quot;param&quot;:&quot;#E83636&quot;,&quot;tag&quot;:&quot;TAG2&quot;},{&quot;data&quot;:&quot;0.5|1.5&quot;,&quot;param&quot;:&quot;#4DC463&quot;,&quot;tag&quot;:&quot;TAG2&quot;}]}"
     y="546.01001"
     style="fill:#4dc463" />
  <rect
     class="cls-14"
     x="565.52997"
     width="33"
     height="169.39"
     id="rect421-6"
     inkscape:label="{&quot;attr&quot;:&quot;color&quot;,&quot;list&quot;:[{&quot;data&quot;:&quot;-0.5|0.5&quot;,&quot;param&quot;:&quot;#8C2A2A&quot;,&quot;tag&quot;:&quot;TAG2&quot;},{&quot;data&quot;:&quot;0.5|1.5&quot;,&quot;param&quot;:&quot;#327F3D&quot;,&quot;tag&quot;:&quot;TAG2&quot;}]}"
     y="546.01001"
     style="fill:#327f3d" />
  <rect
     class="cls-15"
     x="636.47998"
     width="11.3"
     height="169.39"
     id="rect423-4"
     inkscape:label="{&quot;attr&quot;:&quot;color&quot;,&quot;list&quot;:[{&quot;data&quot;:&quot;-0.5|.5&quot;,&quot;param&quot;:&quot;#8C2A2A&quot;,&quot;tag&quot;:&quot;TAG2&quot;},{&quot;data&quot;:&quot;0.5|1.5&quot;,&quot;param&quot;:&quot;#63EA73&quot;,&quot;tag&quot;:&quot;TAG2&quot;}]}"
     y="546.01001"
     style="fill:#63ea73" />
  <rect
     inkscape:label="{&quot;attr&quot;:&quot;color&quot;,&quot;list&quot;:[{&quot;data&quot;:&quot;-0.5|0.5&quot;,&quot;param&quot;:&quot;#8C2A2A&quot;,&quot;tag&quot;:&quot;TAG2&quot;},{&quot;data&quot;:&quot;0.5|1.5&quot;,&quot;param&quot;:&quot;#327F3D&quot;,&quot;tag&quot;:&quot;TAG2&quot;}]}"
     id="rect459-1"
     height="169.39"
     width="51.809937"
     x="784.71997"
     class="cls-14"
     y="546.01001"
     style="fill:#327f3d;stroke-width:1.25299561" />
  <rect
     class="cls-13"
     x="995.61005"
     width="271"
     height="169.39"
     id="rect419-7"
     inkscape:label="{&quot;attr&quot;:&quot;color&quot;,&quot;list&quot;:[{&quot;data&quot;:&quot;-0.5|0.5&quot;,&quot;param&quot;:&quot;#E83636&quot;,&quot;tag&quot;:&quot;TAG7&quot;},{&quot;data&quot;:&quot;0.5|1.5&quot;,&quot;param&quot;:&quot;#4DC463&quot;,&quot;tag&quot;:&quot;TAG7&quot;}]}"
     y="715.40002"
     style="fill:#4dc463" />
  <rect
     class="cls-14"
     x="995.61005"
     width="33"
     height="169.39"
     id="rect421-9"
     inkscape:label="{&quot;attr&quot;:&quot;color&quot;,&quot;list&quot;:[{&quot;data&quot;:&quot;-0.5|0.5&quot;,&quot;param&quot;:&quot;#8C2A2A&quot;,&quot;tag&quot;:&quot;TAG7&quot;},{&quot;data&quot;:&quot;0.5|1.5&quot;,&quot;param&quot;:&quot;#327F3D&quot;,&quot;tag&quot;:&quot;TAG7&quot;}]}"
     y="715.40002"
     style="fill:#327f3d" />
  <rect
     class="cls-15"
     x="1066.5601"
     width="11.3"
     height="169.39"
     id="rect423-2"
     inkscape:label="{&quot;attr&quot;:&quot;color&quot;,&quot;list&quot;:[{&quot;data&quot;:&quot;-0.5|.5&quot;,&quot;param&quot;:&quot;#8C2A2A&quot;,&quot;tag&quot;:&quot;TAG7&quot;},{&quot;data&quot;:&quot;0.5|1.5&quot;,&quot;param&quot;:&quot;#63EA73&quot;,&quot;tag&quot;:&quot;TAG7&quot;}]}"
     y="715.40002"
     style="fill:#63ea73" />
  <rect
     inkscape:label="{&quot;attr&quot;:&quot;color&quot;,&quot;list&quot;:[{&quot;data&quot;:&quot;-0.5|0.5&quot;,&quot;param&quot;:&quot;#8C2A2A&quot;,&quot;tag&quot;:&quot;TAG7&quot;},{&quot;data&quot;:&quot;0.5|1.5&quot;,&quot;param&quot;:&quot;#327F3D&quot;,&quot;tag&quot;:&quot;TAG1&quot;}]}"
     id="rect459-8"
     height="169.39"
     width="51.809937"
     x="1214.8"
     class="cls-14"
     y="715.40002"
     style="fill:#327f3d;stroke-width:1.25299561" />
  <rect
     class="cls-13"
     x="995.61005"
     width="271"
     height="172.07001"
     id="rect419-5"
     inkscape:label="{&quot;attr&quot;:&quot;color&quot;,&quot;list&quot;:[{&quot;data&quot;:&quot;-0.5|0.5&quot;,&quot;param&quot;:&quot;#E83636&quot;,&quot;tag&quot;:&quot;TAG8&quot;},{&quot;data&quot;:&quot;0.5|1.5&quot;,&quot;param&quot;:&quot;#4DC463&quot;,&quot;tag&quot;:&quot;TAG8&quot;}]}"
     y="543.33002"
     style="fill:#4dc463;stroke-width:1.00787973" />
  <rect
     class="cls-14"
     x="995.61005"
     width="33"
     height="172.07001"
     id="rect421-97"
     inkscape:label="{&quot;attr&quot;:&quot;color&quot;,&quot;list&quot;:[{&quot;data&quot;:&quot;-0.5|0.5&quot;,&quot;param&quot;:&quot;#8C2A2A&quot;,&quot;tag&quot;:&quot;TAG8&quot;},{&quot;data&quot;:&quot;0.5|1.5&quot;,&quot;param&quot;:&quot;#327F3D&quot;,&quot;tag&quot;:&quot;TAG8&quot;}]}"
     y="543.33002"
     style="fill:#327f3d;stroke-width:1.00787973" />
  <rect
     class="cls-15"
     x="1066.5601"
     width="11.3"
     height="172.07001"
     id="rect423-24"
     inkscape:label="{&quot;attr&quot;:&quot;color&quot;,&quot;list&quot;:[{&quot;data&quot;:&quot;-0.5|.5&quot;,&quot;param&quot;:&quot;#8C2A2A&quot;,&quot;tag&quot;:&quot;TAG8&quot;},{&quot;data&quot;:&quot;0.5|1.5&quot;,&quot;param&quot;:&quot;#63EA73&quot;,&quot;tag&quot;:&quot;TAG8&quot;}]}"
     y="543.33002"
     style="fill:#63ea73;stroke-width:1.00787973" />
  <rect
     inkscape:label="{&quot;attr&quot;:&quot;color&quot;,&quot;list&quot;:[{&quot;data&quot;:&quot;-0.5|0.5&quot;,&quot;param&quot;:&quot;#8C2A2A&quot;,&quot;tag&quot;:&quot;TAG8&quot;},{&quot;data&quot;:&quot;0.5|1.5&quot;,&quot;param&quot;:&quot;#327F3D&quot;,&quot;tag&quot;:&quot;TAG8&quot;}]}"
     id="rect459-91"
     height="172.07001"
     width="51.809937"
     x="1214.8"
     class="cls-14"
     y="543.33002"
     style="fill:#327f3d;stroke-width:1.26286888" />
  <rect
     class="cls-13"
     x="28.59"
     width="377.21155"
     height="163.63499"
     id="rect419-6"
     inkscape:label="{&quot;attr&quot;:&quot;color&quot;,&quot;list&quot;:[{&quot;data&quot;:&quot;-0.5|0.5&quot;,&quot;param&quot;:&quot;#E83636&quot;,&quot;tag&quot;:&quot;TAG4&quot;},{&quot;data&quot;:&quot;0.5|1.5&quot;,&quot;param&quot;:&quot;#4DC463&quot;,&quot;tag&quot;:&quot;TAG4&quot;}]}"
     y="685.33502"
     style="fill:#4dc463;stroke-width:1.15958357" />
  <rect
     class="cls-14"
     x="28.59"
     width="45.93351"
     height="163.63499"
     id="rect421-8"
     inkscape:label="{&quot;attr&quot;:&quot;color&quot;,&quot;list&quot;:[{&quot;data&quot;:&quot;-0.5|0.5&quot;,&quot;param&quot;:&quot;#8C2A2A&quot;,&quot;tag&quot;:&quot;TAG4&quot;},{&quot;data&quot;:&quot;0.5|1.5&quot;,&quot;param&quot;:&quot;#327F3D&quot;,&quot;tag&quot;:&quot;TAG4&quot;}]}"
     y="685.33502"
     style="fill:#327f3d;stroke-width:1.15958357" />
  <rect
     class="cls-15"
     x="127.34705"
     width="15.728747"
     height="163.63499"
     id="rect423-9"
     inkscape:label="{&quot;attr&quot;:&quot;color&quot;,&quot;list&quot;:[{&quot;data&quot;:&quot;-0.5|.5&quot;,&quot;param&quot;:&quot;#8C2A2A&quot;,&quot;tag&quot;:&quot;TAG4&quot;},{&quot;data&quot;:&quot;0.5|1.5&quot;,&quot;param&quot;:&quot;#63EA73&quot;,&quot;tag&quot;:&quot;TAG4&quot;}]}"
     y="685.33502"
     style="fill:#63ea73;stroke-width:1.15958357" />
  <rect
     inkscape:label="{&quot;attr&quot;:&quot;color&quot;,&quot;list&quot;:[{&quot;data&quot;:&quot;-0.5|0.5&quot;,&quot;param&quot;:&quot;#8C2A2A&quot;,&quot;tag&quot;:&quot;TAG4&quot;},{&quot;data&quot;:&quot;0.5|1.5&quot;,&quot;param&quot;:&quot;#327F3D&quot;,&quot;tag&quot;:&quot;TAG4&quot;}]}"
     id="rect459-0"
     height="163.63499"
     width="72.115524"
     x="333.68594"
     class="cls-14"
     y="685.33502"
     style="fill:#327f3d;stroke-width:1.4529531" />
  <rect
     class="cls-13"
     x="28.590034"
     width="377.21155"
     height="169.39"
     id="rect419-6-7"
     inkscape:label="{&quot;attr&quot;:&quot;color&quot;,&quot;list&quot;:[{&quot;data&quot;:&quot;-0.5|0.5&quot;,&quot;param&quot;:&quot;#E83636&quot;,&quot;tag&quot;:&quot;TAG5&quot;},{&quot;data&quot;:&quot;0.5|1.5&quot;,&quot;param&quot;:&quot;#4DC463&quot;,&quot;tag&quot;:&quot;TAG5&quot;}]}"
     y="515.94501"
     style="fill:#4dc463;stroke-width:1.17979848" />
  <rect
     class="cls-14"
     x="28.590034"
     width="45.93351"
     height="169.39"
     id="rect421-8-1"
     inkscape:label="{&quot;attr&quot;:&quot;color&quot;,&quot;list&quot;:[{&quot;data&quot;:&quot;-0.5|0.5&quot;,&quot;param&quot;:&quot;#8C2A2A&quot;,&quot;tag&quot;:&quot;TAG5&quot;},{&quot;data&quot;:&quot;0.5|1.5&quot;,&quot;param&quot;:&quot;#327F3D&quot;,&quot;tag&quot;:&quot;TAG5&quot;}]}"
     y="515.94501"
     style="fill:#327f3d;stroke-width:1.17979848" />
  <rect
     class="cls-15"
     x="127.34708"
     width="15.728747"
     height="169.39"
     id="rect423-9-8"
     inkscape:label="{&quot;attr&quot;:&quot;color&quot;,&quot;list&quot;:[{&quot;data&quot;:&quot;-0.5|.5&quot;,&quot;param&quot;:&quot;#8C2A2A&quot;,&quot;tag&quot;:&quot;TAG5&quot;},{&quot;data&quot;:&quot;0.5|1.5&quot;,&quot;param&quot;:&quot;#63EA73&quot;,&quot;tag&quot;:&quot;TAG5&quot;}]}"
     y="515.94501"
     style="fill:#63ea73;stroke-width:1.17979848" />
  <rect
     inkscape:label="{&quot;attr&quot;:&quot;color&quot;,&quot;list&quot;:[{&quot;data&quot;:&quot;-0.5|0.5&quot;,&quot;param&quot;:&quot;#8C2A2A&quot;,&quot;tag&quot;:&quot;TAG5&quot;},{&quot;data&quot;:&quot;0.5|1.5&quot;,&quot;param&quot;:&quot;#327F3D&quot;,&quot;tag&quot;:&quot;TAG5&quot;}]}"
     id="rect459-0-0"
     height="169.39"
     width="72.115524"
     x="333.68597"
     class="cls-14"
     y="515.94501"
     style="fill:#327f3d;stroke-width:1.47828233" />
  <rect
     class="cls-13"
     x="28.590019"
     width="377.21155"
     height="142.91695"
     id="rect419-6-0"
     inkscape:label="{&quot;attr&quot;:&quot;color&quot;,&quot;list&quot;:[{&quot;data&quot;:&quot;-0.5|0.5&quot;,&quot;param&quot;:&quot;#E83636&quot;,&quot;tag&quot;:&quot;TAG6&quot;},{&quot;data&quot;:&quot;0.5|1.5&quot;,&quot;param&quot;:&quot;#4DC463&quot;,&quot;tag&quot;:&quot;TAG6&quot;}]}"
     y="373.02805"
     style="fill:#4dc463;stroke-width:1.08369184" />
  <rect
     class="cls-14"
     x="28.590019"
     width="45.93351"
     height="142.91695"
     id="rect421-8-9"
     inkscape:label="{&quot;attr&quot;:&quot;color&quot;,&quot;list&quot;:[{&quot;data&quot;:&quot;-0.5|0.5&quot;,&quot;param&quot;:&quot;#8C2A2A&quot;,&quot;tag&quot;:&quot;TAG6&quot;},{&quot;data&quot;:&quot;0.5|1.5&quot;,&quot;param&quot;:&quot;#327F3D&quot;,&quot;tag&quot;:&quot;TAG6&quot;}]}"
     y="373.02805"
     style="fill:#327f3d;stroke-width:1.08369184" />
  <rect
     class="cls-15"
     x="127.34708"
     width="15.728747"
     height="142.91695"
     id="rect423-9-4"
     inkscape:label="{&quot;attr&quot;:&quot;color&quot;,&quot;list&quot;:[{&quot;data&quot;:&quot;-0.5|.5&quot;,&quot;param&quot;:&quot;#8C2A2A&quot;,&quot;tag&quot;:&quot;TAG6&quot;},{&quot;data&quot;:&quot;0.5|1.5&quot;,&quot;param&quot;:&quot;#63EA73&quot;,&quot;tag&quot;:&quot;TAG6&quot;}]}"
     y="373.02805"
     style="fill:#63ea73;stroke-width:1.08369184" />
  <rect
     inkscape:label="{&quot;attr&quot;:&quot;color&quot;,&quot;list&quot;:[{&quot;data&quot;:&quot;-0.5|0.5&quot;,&quot;param&quot;:&quot;#8C2A2A&quot;,&quot;tag&quot;:&quot;TAG6&quot;},{&quot;data&quot;:&quot;0.5|1.5&quot;,&quot;param&quot;:&quot;#327F3D&quot;,&quot;tag&quot;:&quot;TAG6&quot;}]}"
     id="rect459-0-1"
     height="142.91695"
     width="72.115524"
     x="333.68597"
     class="cls-14"
     y="373.02805"
     style="fill:#327f3d;stroke-width:1.35786116" />
</svg>
