<?xml version="1.0" encoding="UTF-8" standalone="no"?>
<svg
   xmlns:dc="http://purl.org/dc/elements/1.1/"
   xmlns:cc="http://creativecommons.org/ns#"
   xmlns:rdf="http://www.w3.org/1999/02/22-rdf-syntax-ns#"
   xmlns:svg="http://www.w3.org/2000/svg"
   xmlns="http://www.w3.org/2000/svg"
   xmlns:sodipodi="http://sodipodi.sourceforge.net/DTD/sodipodi-0.dtd"
   xmlns:inkscape="http://www.inkscape.org/namespaces/inkscape"
   viewBox="0 0 1400.97 976.05"
   version="1.1"
   id="svg438"
   sodipodi:docname="sitja8.svg"
   inkscape:version="0.92.4 (e05b578f1, 2019-02-26, custom)">
  <metadata
     id="metadata442">
    <rdf:RDF>
      <cc:Work
         rdf:about="">
        <dc:format>image/svg+xml</dc:format>
        <dc:type
           rdf:resource="http://purl.org/dc/dcmitype/StillImage" />
        <dc:title></dc:title>
      </cc:Work>
    </rdf:RDF>
  </metadata>
  <sodipodi:namedview
     pagecolor="#ffffff"
     bordercolor="#666666"
     borderopacity="1"
     objecttolerance="10"
     gridtolerance="10"
     guidetolerance="10"
     inkscape:pageopacity="0"
     inkscape:pageshadow="2"
     inkscape:window-width="1920"
     inkscape:window-height="1017"
     id="namedview440"
     showgrid="false"
     inkscape:zoom="0.70710678"
     inkscape:cx="566.89857"
     inkscape:cy="547.62745"
     inkscape:window-x="-8"
     inkscape:window-y="-8"
     inkscape:window-maximized="1"
     inkscape:current-layer="svg438"
     inkscape:snap-text-baseline="true" />
  <defs
     id="defs229">
    <style
       id="style227">.cls-1{isolation:isolate;}.cls-2,.cls-6,.cls-7{fill:#b8b0ab;}.cls-3{fill:#323537;}.cls-4{fill:#8e8986;}.cls-5{fill:#797673;}.cls-6{mix-blend-mode:multiply;}.cls-7{opacity:0.4;mix-blend-mode:screen;}.cls-8{fill:#cbc7c0;}.cls-12,.cls-9{fill:none;}.cls-9{stroke:#8e8986;stroke-width:9px;}.cls-10,.cls-11,.cls-12,.cls-9{stroke-miterlimit:10;}.cls-10{fill:#fff;}.cls-10,.cls-11,.cls-12{stroke:#000;}.cls-10,.cls-11{stroke-width:4px;}.cls-11,.cls-14{fill:#327f3d;}.cls-12{stroke-width:3px;}.cls-13{fill:#4dc463;}.cls-15{fill:#63ea73;}.cls-16{fill:#e83636;}.cls-17{fill:#8c2a2a;}.cls-18{fill:#ef7b7b;}</style>
  </defs>
  <rect
     style="fill:#000000;fill-opacity:1;stroke-width:1.70905805"
     id="rect801"
     width="1401.504"
     height="973.40234"
     x="6.9587226"
     y="-2.2400608" />
  <flowRoot
     xml:space="preserve"
     id="flowRoot593"
     style="font-style:normal;font-weight:normal;font-size:40px;line-height:1.25;font-family:sans-serif;letter-spacing:0px;word-spacing:0px;fill:#000000;fill-opacity:1;stroke:none"
     transform="matrix(2.0587806,0,0,1.9158542,274.84348,-1324.6779)"><flowRegion
       id="flowRegion595"><rect
         id="rect597"
         width="603.90015"
         height="162.77631"
         x="-110.68789"
         y="1050.9271" /></flowRegion><flowPara
       id="flowPara599"
       style="font-style:normal;font-variant:normal;font-weight:normal;font-stretch:normal;font-family:'Microsoft JhengHei';-inkscape-font-specification:'Microsoft JhengHei';fill:#ffffff">Sitja 1</flowPara></flowRoot>  <flowRoot
     xml:space="preserve"
     id="flowRoot593-3"
     style="font-style:normal;font-weight:normal;font-size:40px;line-height:1.25;font-family:sans-serif;letter-spacing:0px;word-spacing:0px;fill:#000000;fill-opacity:1;stroke:none"
     transform="matrix(2.0587806,0,0,1.9158542,649.95051,-1320.6703)"><flowRegion
       id="flowRegion595-0"><rect
         id="rect597-0"
         width="603.90015"
         height="162.77631"
         x="-110.68789"
         y="1050.9271" /></flowRegion><flowPara
       id="flowPara599-7"
       style="font-style:normal;font-variant:normal;font-weight:normal;font-stretch:normal;font-family:'Microsoft JhengHei';-inkscape-font-specification:'Microsoft JhengHei';fill:#ffffff">Sitja 2 </flowPara></flowRoot>  <flowRoot
     xml:space="preserve"
     id="flowRoot593-3-1"
     style="font-style:normal;font-weight:normal;font-size:40px;line-height:1.25;font-family:sans-serif;letter-spacing:0px;word-spacing:0px;fill:#000000;fill-opacity:1;stroke:none"
     transform="matrix(2.0587806,0,0,1.9158542,471.49626,-1308.1561)"><flowRegion
       id="flowRegion595-0-4"><rect
         id="rect597-0-9"
         width="603.90015"
         height="162.77631"
         x="-110.68789"
         y="1050.9271" /></flowRegion><flowPara
       id="flowPara599-7-3"
       style="font-style:normal;font-variant:normal;font-weight:normal;font-stretch:normal;font-family:'Microsoft JhengHei';-inkscape-font-specification:'Microsoft JhengHei';text-align:center;text-anchor:middle;fill:#ffffff">Sitja</flowPara><flowPara
       style="font-style:normal;font-variant:normal;font-weight:normal;font-stretch:normal;font-family:'Microsoft JhengHei';-inkscape-font-specification:'Microsoft JhengHei';text-align:center;text-anchor:middle;fill:#ffffff"
       id="flowPara653">Biomassa </flowPara></flowRoot>  <flowRoot
     xml:space="preserve"
     id="flowRoot655"
     style="fill:black;fill-opacity:1;stroke:none;font-family:sans-serif;font-style:normal;font-weight:normal;font-size:40px;line-height:1.25;letter-spacing:0px;word-spacing:0px"><flowRegion
       id="flowRegion657"><rect
         id="rect659"
         width="198.5871"
         height="109.06013"
         x="786.20959"
         y="810.01813" /></flowRegion><flowPara
       id="flowPara661" /></flowRoot>  <g
     inkscape:groupmode="layer"
     id="layer2"
     inkscape:label="Layer 2"
     style="display:inline;opacity:1" />
  <g
     inkscape:groupmode="layer"
     id="layer1"
     inkscape:label="Layer 1"
     style="display:inline" />
  <g
     class="cls-1"
     id="g436"
     transform="matrix(0.75988392,0,0,0.80293523,4.870216,-50.886448)"
     style="isolation:isolate">
    <g
       id="svg2">
      <rect
         class="cls-2"
         x="565.38"
         y="543.33002"
         width="271.07001"
         height="341.45999"
         id="rect265"
         style="fill:#b8b0ab" />
      <path
         class="cls-5"
         d="m 1403.74,1070.84 h -271.07 a 1,1 0 0 1 -1.06,-0.9 V 728.48 a 1,1 0 0 1 1.06,-0.9 h 271.07 a 1,1 0 0 1 1.07,0.9 v 341.46 a 1,1 0 0 1 -1.07,0.9 z m -270,-1.81 h 269 V 729.4 h -269 z"
         transform="translate(-567.3,-185.15)"
         id="path267"
         inkscape:connector-curvature="0"
         style="fill:#797673" />
      <rect
         class="cls-6"
         x="784.71997"
         y="543.33002"
         width="51.720001"
         height="341.45999"
         id="rect269"
         style="mix-blend-mode:multiply;fill:#b8b0ab" />
      <rect
         class="cls-6"
         x="565.38"
         y="543.33002"
         width="33"
         height="341.45999"
         id="rect271"
         style="mix-blend-mode:multiply;fill:#b8b0ab" />
      <rect
         class="cls-7"
         x="636.47998"
         y="543.33002"
         width="11.3"
         height="341.45999"
         id="rect273"
         style="opacity:0.4;mix-blend-mode:screen;fill:#b8b0ab" />
      <polygon
         class="cls-2"
         points="745.28,509.75 662.14,509 662.35,491.83 745.49,492.56 "
         id="polygon275"
         style="fill:#b8b0ab" />
      <path
         class="cls-4"
         d="m 1312.58,695.79 v 0 l -83.13,-0.74 a 1.14,1.14 0 0 1 -0.74,-0.27 0.87,0.87 0 0 1 -0.29,-0.65 l 0.21,-17.18 a 1,1 0 0 1 1.06,-0.89 l 83.13,0.74 a 1.18,1.18 0 0 1 0.75,0.27 0.83,0.83 0 0 1 0.31,0.65 l -0.22,17.18 a 1,1 0 0 1 -1.08,0.89 z m -82.07,-2.55 81,0.73 0.2,-15.36 -81,-0.72 z"
         transform="translate(-567.3,-185.15)"
         id="path277"
         inkscape:connector-curvature="0"
         style="fill:#8e8986" />
      <polygon
         class="cls-8"
         points="660.46,500.21 565.38,543.33 836.48,543.33 747.66,501 710.35,500.66 697.78,500.55 "
         id="polygon279"
         style="fill:#cbc7c0" />
      <path
         class="cls-4"
         d="m 1403.78,729.4 h -271.11 a 1.07,1.07 0 0 1 -1,-0.7 0.87,0.87 0 0 1 0.55,-1 l 95.07,-43.13 a 1.57,1.57 0 0 1 0.5,-0.11 l 87.21,0.79 a 1.12,1.12 0 0 1 0.51,0.11 l 88.81,42.35 a 0.88,0.88 0 0 1 0.51,1 1.07,1.07 0 0 1 -1.05,0.69 z m -266.84,-1.82 h 262.75 l -85,-40.55 -86.66,-0.76 z"
         transform="translate(-567.3,-185.15)"
         id="path281"
         inkscape:connector-curvature="0"
         style="fill:#8e8986" />
      <path
         class="cls-6"
         d="m 1352,728.48 h 51.76 l -88.76,-42.34 -9.68,-0.09 c 8.45,7.95 40,36.64 46.68,42.43 z"
         transform="translate(-567.3,-185.15)"
         id="path283"
         inkscape:connector-curvature="0"
         style="mix-blend-mode:multiply;fill:#b8b0ab" />
      <path
         class="cls-6"
         d="m 1228.6,690.77 c 3,-1.74 6.18,-3.45 9.24,-5.32 l -10.08,-0.09 -95.09,43.12 h 32.42 c 2.54,-1.61 54.72,-32.58 63.51,-37.71 z"
         transform="translate(-567.3,-185.15)"
         id="path285"
         inkscape:connector-curvature="0"
         style="mix-blend-mode:multiply;fill:#b8b0ab" />
      <polygon
         class="cls-2"
         points="279.01,324.35 163.28,323.31 163.58,299.41 279.31,300.44 "
         id="polygon287"
         style="fill:#b8b0ab" />
      <path
         class="cls-4"
         d="m 846.3,510.75 v 0 l -115.72,-1 a 1.59,1.59 0 0 1 -1,-0.37 1.26,1.26 0 0 1 -0.41,-0.91 l 0.3,-23.91 a 1.35,1.35 0 0 1 1.48,-1.24 l 115.7,1 a 1.66,1.66 0 0 1 1,0.38 1.18,1.18 0 0 1 0.43,0.91 l -0.3,23.91 a 1.37,1.37 0 0 1 -1.48,1.23 z m -114.22,-3.54 112.76,1 0.27,-21.37 -112.77,-1 z"
         transform="translate(-567.3,-185.15)"
         id="path289"
         inkscape:connector-curvature="0"
         style="fill:#8e8986" />
      <polygon
         class="cls-8"
         points="160.94,311.09 28.59,371.1 405.96,371.1 282.33,312.17 230.39,311.7 212.89,311.55 "
         id="polygon291"
         style="fill:#cbc7c0" />
      <path
         class="cls-4"
         d="M 973.25,557.53 H 595.89 a 1.49,1.49 0 0 1 -1.44,-1 1.22,1.22 0 0 1 0.76,-1.43 l 132.34,-60 a 2.1,2.1 0 0 1 0.7,-0.16 l 121.39,1.1 a 1.41,1.41 0 0 1 0.7,0.16 L 974,555.15 a 1.23,1.23 0 0 1 0.72,1.43 1.5,1.5 0 0 1 -1.47,0.95 z M 601.83,555 H 967.56 L 849.23,498.56 728.6,497.5 Z"
         transform="translate(-567.3,-185.15)"
         id="path293"
         inkscape:connector-curvature="0"
         style="fill:#8e8986" />
      <path
         class="cls-6"
         d="m 901.21,556.25 h 72 l -123.58,-58.93 -13.47,-0.13 c 11.84,11.06 55.72,51.01 65.05,59.06 z"
         transform="translate(-567.3,-185.15)"
         id="path295"
         inkscape:connector-curvature="0"
         style="mix-blend-mode:multiply;fill:#b8b0ab" />
      <path
         class="cls-6"
         d="m 729.42,503.77 c 4.16,-2.43 8.6,-4.81 12.86,-7.41 l -14,-0.13 -132.35,60 H 641 c 3.54,-2.23 76.18,-45.32 88.42,-52.46 z"
         transform="translate(-567.3,-185.15)"
         id="path297"
         inkscape:connector-curvature="0"
         style="mix-blend-mode:multiply;fill:#b8b0ab" />
      <rect
         class="cls-2"
         x="995.45001"
         y="543.33002"
         width="271.07001"
         height="341.45999"
         id="rect333"
         style="fill:#b8b0ab" />
      <path
         class="cls-5"
         d="m 1833.82,1070.84 h -271.07 a 1,1 0 0 1 -1.06,-0.9 V 728.48 a 1,1 0 0 1 1.06,-0.9 h 271.07 a 1,1 0 0 1 1.07,0.9 v 341.46 a 1,1 0 0 1 -1.07,0.9 z m -270,-1.81 h 269 V 729.4 h -269 z"
         transform="translate(-567.3,-185.15)"
         id="path335"
         inkscape:connector-curvature="0"
         style="fill:#797673" />
      <rect
         class="cls-6"
         x="1214.8"
         y="543.33002"
         width="51.720001"
         height="341.45999"
         id="rect337"
         style="mix-blend-mode:multiply;fill:#b8b0ab" />
      <rect
         class="cls-6"
         x="995.45001"
         y="543.33002"
         width="33"
         height="341.45999"
         id="rect339"
         style="mix-blend-mode:multiply;fill:#b8b0ab" />
      <rect
         class="cls-7"
         x="1066.5601"
         y="543.33002"
         width="11.3"
         height="341.45999"
         id="rect341"
         style="opacity:0.4;mix-blend-mode:screen;fill:#b8b0ab" />
      <polygon
         class="cls-2"
         points="1175.36,509.75 1092.22,509 1092.43,491.83 1175.57,492.56 "
         id="polygon343"
         style="fill:#b8b0ab" />
      <path
         class="cls-4"
         d="m 1742.65,695.79 v 0 l -83.13,-0.74 a 1.14,1.14 0 0 1 -0.74,-0.27 0.87,0.87 0 0 1 -0.29,-0.65 l 0.21,-17.18 a 1,1 0 0 1 1.06,-0.89 l 83.13,0.74 a 1.18,1.18 0 0 1 0.75,0.27 0.85,0.85 0 0 1 0.3,0.65 l -0.21,17.18 a 1,1 0 0 1 -1.08,0.89 z m -82.06,-2.55 81,0.73 0.2,-15.36 -81,-0.72 z"
         transform="translate(-567.3,-185.15)"
         id="path345"
         inkscape:connector-curvature="0"
         style="fill:#8e8986" />
      <polygon
         class="cls-8"
         points="1090.54,500.21 995.46,543.33 1266.56,543.33 1177.74,501 1140.43,500.66 1127.86,500.55 "
         id="polygon347"
         style="fill:#cbc7c0" />
      <path
         class="cls-4"
         d="m 1833.86,729.4 h -271.11 a 1.07,1.07 0 0 1 -1,-0.7 0.86,0.86 0 0 1 0.55,-1 l 95.07,-43.13 a 1.51,1.51 0 0 1 0.5,-0.11 l 87.21,0.79 a 1.12,1.12 0 0 1 0.51,0.11 l 88.81,42.35 a 0.88,0.88 0 0 1 0.51,1 1.08,1.08 0 0 1 -1.05,0.69 z M 1567,727.58 h 262.75 l -85,-40.55 -86.66,-0.76 z"
         transform="translate(-567.3,-185.15)"
         id="path349"
         inkscape:connector-curvature="0"
         style="fill:#8e8986" />
      <path
         class="cls-6"
         d="m 1782.1,728.48 h 51.76 l -88.86,-42.34 -9.68,-0.09 c 8.53,7.95 40.08,36.64 46.78,42.43 z"
         transform="translate(-567.3,-185.15)"
         id="path351"
         inkscape:connector-curvature="0"
         style="mix-blend-mode:multiply;fill:#b8b0ab" />
      <path
         class="cls-6"
         d="m 1658.68,690.77 c 3,-1.74 6.18,-3.45 9.24,-5.32 l -10.09,-0.09 -95.08,43.12 h 32.42 c 2.54,-1.61 54.72,-32.58 63.51,-37.71 z"
         transform="translate(-567.3,-185.15)"
         id="path353"
         inkscape:connector-curvature="0"
         style="mix-blend-mode:multiply;fill:#b8b0ab" />
      <path
         class="cls-5"
         d="M 405.93,889.45067 H 28.59 a 1.39,1.5041176 0 0 1 -1.48,-1.36345 V 373.73309 a 1.38,1.4932967 0 0 1 1.48,-1.35262 h 377.34 a 1.37,1.4824756 0 0 1 1.49,1.35262 v 514.35413 a 1.38,1.4932967 0 0 1 -1.49,1.36345 z M 30.07,886.71296 h 374.4 V 375.11818 H 30.07 Z"
         id="path391"
         inkscape:connector-curvature="0"
         style="fill:#797673;stroke-width:1.04023981" />
      <line
         class="cls-9"
         x1="221.3"
         y1="298.64999"
         x2="221.3"
         y2="254.24001"
         id="line399"
         style="fill:none;stroke:#8e8986;stroke-width:9px;stroke-miterlimit:10" />
      <line
         class="cls-9"
         x1="703.82001"
         y1="491.82999"
         x2="703.82001"
         y2="447.41"
         id="line401"
         style="fill:none;stroke:#8e8986;stroke-width:9px;stroke-miterlimit:10" />
      <polyline
         class="cls-9"
         points="0 134.5 703.82 134.5 703.82 348"
         id="polyline403"
         style="fill:none;stroke:#8e8986;stroke-width:9px;stroke-miterlimit:10" />
      <polygon
         class="cls-10"
         points="669.11,447.42 737.36,447.42 669.11,348 737.36,348 "
         id="polygon405"
         style="fill:#ffffff;stroke:#000000;stroke-width:4px;stroke-miterlimit:10" />
      <line
         class="cls-11"
         x1="657.28998"
         y1="397.70999"
         x2="703.22998"
         y2="397.70999"
         id="line407"
         style="fill:#327f3d;stroke:#000000;stroke-width:4px;stroke-miterlimit:10" />
      <rect
         class="cls-12"
         x="1176.3"
         y="569.71002"
         width="70.279999"
         height="26.290001"
         transform="rotate(-90,835.22,773.93)"
         id="rect409"
         style="fill:none;stroke:#000000;stroke-width:3px;stroke-miterlimit:10" />
      <line
         class="cls-9"
         x1="221.28"
         y1="154.82001"
         x2="221.28"
         y2="134.5"
         id="line411"
         style="fill:none;stroke:#8e8986;stroke-width:9px;stroke-miterlimit:10" />
      <polygon
         class="cls-10"
         points="187.15,254.24 255.41,254.24 187.15,154.82 255.41,154.82 "
         id="polygon413"
         style="fill:#ffffff;stroke:#000000;stroke-width:4px;stroke-miterlimit:10" />
      <line
         class="cls-11"
         x1="175.33"
         y1="204.53"
         x2="221.28"
         y2="204.53"
         id="line415"
         style="fill:#327f3d;stroke:#000000;stroke-width:4px;stroke-miterlimit:10" />
      <rect
         class="cls-12"
         x="694.34998"
         y="376.53"
         width="70.279999"
         height="26.290001"
         transform="rotate(-90,353.27,580.75)"
         id="rect417"
         style="fill:none;stroke:#000000;stroke-width:3px;stroke-miterlimit:10" />
    </g>
    <rect
       class="cls-13"
       x="565.52997"
       width="271"
       height="169.39"
       id="rect419-4"
       inkscape:label="{&quot;attr&quot;:&quot;color&quot;,&quot;list&quot;:[{&quot;data&quot;:&quot;-0.5|0.5&quot;,&quot;param&quot;:&quot;#E83636&quot;,&quot;tag&quot;:&quot;TAG1&quot;},{&quot;data&quot;:&quot;0.5|1.5&quot;,&quot;param&quot;:&quot;#4DC463&quot;,&quot;tag&quot;:&quot;TAG1&quot;}]}"
       y="715.40002"
       style="fill:#4dc463" />
    <rect
       class="cls-14"
       x="565.52997"
       width="33"
       height="169.39"
       id="rect421-2"
       inkscape:label="{&quot;attr&quot;:&quot;color&quot;,&quot;list&quot;:[{&quot;data&quot;:&quot;-0.5|0.5&quot;,&quot;param&quot;:&quot;#8C2A2A&quot;,&quot;tag&quot;:&quot;TAG1&quot;},{&quot;data&quot;:&quot;0.5|1.5&quot;,&quot;param&quot;:&quot;#327F3D&quot;,&quot;tag&quot;:&quot;TAG1&quot;}]}"
       y="715.40002"
       style="fill:#327f3d" />
    <rect
       class="cls-15"
       x="636.47998"
       width="11.3"
       height="169.39"
       id="rect423-1"
       inkscape:label="{&quot;attr&quot;:&quot;color&quot;,&quot;list&quot;:[{&quot;data&quot;:&quot;-0.5|.5&quot;,&quot;param&quot;:&quot;#8C2A2A&quot;,&quot;tag&quot;:&quot;TAG1&quot;},{&quot;data&quot;:&quot;0.5|1.5&quot;,&quot;param&quot;:&quot;#63EA73&quot;,&quot;tag&quot;:&quot;TAG1&quot;}]}"
       y="715.40002"
       style="fill:#63ea73" />
    <rect
       inkscape:label="{&quot;attr&quot;:&quot;color&quot;,&quot;list&quot;:[{&quot;data&quot;:&quot;-0.5|0.5&quot;,&quot;param&quot;:&quot;#8C2A2A&quot;,&quot;tag&quot;:&quot;TAG1&quot;},{&quot;data&quot;:&quot;0.5|1.5&quot;,&quot;param&quot;:&quot;#327F3D&quot;,&quot;tag&quot;:&quot;TAG1&quot;}]}"
       id="rect459-9"
       height="169.39"
       width="51.809937"
       x="784.71997"
       class="cls-14"
       y="715.40002"
       style="fill:#327f3d;stroke-width:1.25299561" />
  </g>
  <rect
     class="cls-13"
     x="434.60736"
     width="205.92854"
     height="136.0092"
     id="rect419-0"
     inkscape:label="{&quot;attr&quot;:&quot;color&quot;,&quot;list&quot;:[{&quot;data&quot;:&quot;-0.5|0.5&quot;,&quot;param&quot;:&quot;#E83636&quot;,&quot;tag&quot;:&quot;TAG2&quot;},{&quot;data&quot;:&quot;0.5|1.5&quot;,&quot;param&quot;:&quot;#4DC463&quot;,&quot;tag&quot;:&quot;TAG2&quot;}]}"
     y="387.52423"
     style="fill:#4dc463;stroke-width:0.78111303" />
  <rect
     class="cls-14"
     x="434.60736"
     width="25.07617"
     height="136.0092"
     id="rect421-6"
     inkscape:label="{&quot;attr&quot;:&quot;color&quot;,&quot;list&quot;:[{&quot;data&quot;:&quot;-0.5|0.5&quot;,&quot;param&quot;:&quot;#8C2A2A&quot;,&quot;tag&quot;:&quot;TAG2&quot;},{&quot;data&quot;:&quot;0.5|1.5&quot;,&quot;param&quot;:&quot;#327F3D&quot;,&quot;tag&quot;:&quot;TAG2&quot;}]}"
     y="387.52423"
     style="fill:#327f3d;stroke-width:0.78111303" />
  <rect
     class="cls-15"
     x="488.52112"
     width="8.586689"
     height="136.0092"
     id="rect423-4"
     inkscape:label="{&quot;attr&quot;:&quot;color&quot;,&quot;list&quot;:[{&quot;data&quot;:&quot;-0.5|.5&quot;,&quot;param&quot;:&quot;#8C2A2A&quot;,&quot;tag&quot;:&quot;TAG2&quot;},{&quot;data&quot;:&quot;0.5|1.5&quot;,&quot;param&quot;:&quot;#63EA73&quot;,&quot;tag&quot;:&quot;TAG2&quot;}]}"
     y="387.52423"
     style="fill:#63ea73;stroke-width:0.78111303" />
  <rect
     inkscape:label="{&quot;attr&quot;:&quot;color&quot;,&quot;list&quot;:[{&quot;data&quot;:&quot;-0.5|0.5&quot;,&quot;param&quot;:&quot;#8C2A2A&quot;,&quot;tag&quot;:&quot;TAG2&quot;},{&quot;data&quot;:&quot;0.5|1.5&quot;,&quot;param&quot;:&quot;#327F3D&quot;,&quot;tag&quot;:&quot;TAG2&quot;}]}"
     id="rect459-1"
     height="136.0092"
     width="39.369537"
     x="601.16632"
     class="cls-14"
     y="387.52423"
     style="fill:#327f3d;stroke-width:0.97873127" />
  <rect
     class="cls-13"
     x="761.41827"
     width="205.92854"
     height="136.0092"
     id="rect419-7"
     inkscape:label="{&quot;attr&quot;:&quot;color&quot;,&quot;list&quot;:[{&quot;data&quot;:&quot;-0.5|0.5&quot;,&quot;param&quot;:&quot;#E83636&quot;,&quot;tag&quot;:&quot;TAG7&quot;},{&quot;data&quot;:&quot;0.5|1.5&quot;,&quot;param&quot;:&quot;#4DC463&quot;,&quot;tag&quot;:&quot;TAG7&quot;}]}"
     y="523.53345"
     style="fill:#4dc463;stroke-width:0.78111303" />
  <rect
     class="cls-14"
     x="761.41827"
     width="25.07617"
     height="136.0092"
     id="rect421-9"
     inkscape:label="{&quot;attr&quot;:&quot;color&quot;,&quot;list&quot;:[{&quot;data&quot;:&quot;-0.5|0.5&quot;,&quot;param&quot;:&quot;#8C2A2A&quot;,&quot;tag&quot;:&quot;TAG7&quot;},{&quot;data&quot;:&quot;0.5|1.5&quot;,&quot;param&quot;:&quot;#327F3D&quot;,&quot;tag&quot;:&quot;TAG7&quot;}]}"
     y="523.53345"
     style="fill:#327f3d;stroke-width:0.78111303" />
  <rect
     class="cls-15"
     x="815.33203"
     width="8.586689"
     height="136.0092"
     id="rect423-2"
     inkscape:label="{&quot;attr&quot;:&quot;color&quot;,&quot;list&quot;:[{&quot;data&quot;:&quot;-0.5|.5&quot;,&quot;param&quot;:&quot;#8C2A2A&quot;,&quot;tag&quot;:&quot;TAG7&quot;},{&quot;data&quot;:&quot;0.5|1.5&quot;,&quot;param&quot;:&quot;#63EA73&quot;,&quot;tag&quot;:&quot;TAG7&quot;}]}"
     y="523.53345"
     style="fill:#63ea73;stroke-width:0.78111303" />
  <rect
     inkscape:label="{&quot;attr&quot;:&quot;color&quot;,&quot;list&quot;:[{&quot;data&quot;:&quot;-0.5|0.5&quot;,&quot;param&quot;:&quot;#8C2A2A&quot;,&quot;tag&quot;:&quot;TAG7&quot;},{&quot;data&quot;:&quot;0.5|1.5&quot;,&quot;param&quot;:&quot;#327F3D&quot;,&quot;tag&quot;:&quot;TAG7&quot;}]}"
     id="rect459-8"
     height="136.0092"
     width="39.369537"
     x="927.97723"
     class="cls-14"
     y="523.53345"
     style="fill:#327f3d;stroke-width:0.97873127" />
  <rect
     class="cls-13"
     x="761.41827"
     width="205.92854"
     height="138.16107"
     id="rect419-5"
     inkscape:label="{&quot;attr&quot;:&quot;color&quot;,&quot;list&quot;:[{&quot;data&quot;:&quot;-0.5|0.5&quot;,&quot;param&quot;:&quot;#E83636&quot;,&quot;tag&quot;:&quot;TAG8&quot;},{&quot;data&quot;:&quot;0.5|1.5&quot;,&quot;param&quot;:&quot;#4DC463&quot;,&quot;tag&quot;:&quot;TAG8&quot;}]}"
     y="385.37234"
     style="fill:#4dc463;stroke-width:0.78726798" />
  <rect
     class="cls-14"
     x="761.41827"
     width="25.07617"
     height="138.16107"
     id="rect421-97"
     inkscape:label="{&quot;attr&quot;:&quot;color&quot;,&quot;list&quot;:[{&quot;data&quot;:&quot;-0.5|0.5&quot;,&quot;param&quot;:&quot;#8C2A2A&quot;,&quot;tag&quot;:&quot;TAG8&quot;},{&quot;data&quot;:&quot;0.5|1.5&quot;,&quot;param&quot;:&quot;#327F3D&quot;,&quot;tag&quot;:&quot;TAG8&quot;}]}"
     y="385.37234"
     style="fill:#327f3d;stroke-width:0.78726798" />
  <rect
     class="cls-15"
     x="815.33203"
     width="8.586689"
     height="138.16107"
     id="rect423-24"
     inkscape:label="{&quot;attr&quot;:&quot;color&quot;,&quot;list&quot;:[{&quot;data&quot;:&quot;-0.5|.5&quot;,&quot;param&quot;:&quot;#8C2A2A&quot;,&quot;tag&quot;:&quot;TAG8&quot;},{&quot;data&quot;:&quot;0.5|1.5&quot;,&quot;param&quot;:&quot;#63EA73&quot;,&quot;tag&quot;:&quot;TAG8&quot;}]}"
     y="385.37234"
     style="fill:#63ea73;stroke-width:0.78726798" />
  <rect
     inkscape:label="{&quot;attr&quot;:&quot;color&quot;,&quot;list&quot;:[{&quot;data&quot;:&quot;-0.5|0.5&quot;,&quot;param&quot;:&quot;#8C2A2A&quot;,&quot;tag&quot;:&quot;TAG8&quot;},{&quot;data&quot;:&quot;0.5|1.5&quot;,&quot;param&quot;:&quot;#327F3D&quot;,&quot;tag&quot;:&quot;TAG8&quot;}]}"
     id="rect459-91"
     height="138.16107"
     width="39.369537"
     x="927.97723"
     class="cls-14"
     y="385.37234"
     style="fill:#327f3d;stroke-width:0.9864434" />
  <g
     id="g206"
     transform="matrix(1,0,0,1.0869658,0.17022492,-23.170466)">
    <g
       id="g175">
      <rect
         class="cls-13"
         x="26.595297"
         width="286.63699"
         height="131.38831"
         id="rect419-6"
         inkscape:label="{&quot;attr&quot;:&quot;color&quot;,&quot;list&quot;:[{&quot;data&quot;:&quot;-0.5|0.5&quot;,&quot;param&quot;:&quot;#E83636&quot;,&quot;tag&quot;:&quot;TAG4&quot;},{&quot;data&quot;:&quot;0.5|1.5&quot;,&quot;param&quot;:&quot;#4DC463&quot;,&quot;tag&quot;:&quot;TAG4&quot;}]}"
         y="499.39319"
         style="fill:#4dc463;stroke-width:0.90576589" />
      <rect
         class="cls-14"
         x="26.595297"
         width="34.904133"
         height="131.38831"
         id="rect421-8"
         inkscape:label="{&quot;attr&quot;:&quot;color&quot;,&quot;list&quot;:[{&quot;data&quot;:&quot;-0.5|0.5&quot;,&quot;param&quot;:&quot;#8C2A2A&quot;,&quot;tag&quot;:&quot;TAG4&quot;},{&quot;data&quot;:&quot;0.5|1.5&quot;,&quot;param&quot;:&quot;#327F3D&quot;,&quot;tag&quot;:&quot;TAG4&quot;}]}"
         y="499.39319"
         style="fill:#327f3d;stroke-width:0.90576589" />
      <rect
         class="cls-15"
         x="101.63918"
         width="11.952023"
         height="131.38831"
         id="rect423-9"
         inkscape:label="{&quot;attr&quot;:&quot;color&quot;,&quot;list&quot;:[{&quot;data&quot;:&quot;-0.5|.5&quot;,&quot;param&quot;:&quot;#EF7B7B&quot;,&quot;tag&quot;:&quot;TAG4&quot;},{&quot;data&quot;:&quot;0.5|1.5&quot;,&quot;param&quot;:&quot;#63EA73&quot;,&quot;tag&quot;:&quot;TAG4&quot;}]}"
         y="499.39319"
         style="fill:#63ea73;stroke-width:0.90576589" />
      <rect
         inkscape:label="{&quot;attr&quot;:&quot;color&quot;,&quot;list&quot;:[{&quot;data&quot;:&quot;-0.5|0.5&quot;,&quot;param&quot;:&quot;#8C2A2A&quot;,&quot;tag&quot;:&quot;TAG4&quot;},{&quot;data&quot;:&quot;0.5|1.5&quot;,&quot;param&quot;:&quot;#327F3D&quot;,&quot;tag&quot;:&quot;TAG4&quot;}]}"
         id="rect459-0"
         height="131.38831"
         width="54.799427"
         x="258.43283"
         class="cls-14"
         y="499.39319"
         style="fill:#327f3d;stroke-width:1.1349206" />
    </g>
    <g
       id="g169">
      <rect
         class="cls-13"
         x="26.595324"
         width="286.63699"
         height="136.0092"
         id="rect419-6-7"
         inkscape:label="{&quot;attr&quot;:&quot;color&quot;,&quot;list&quot;:[{&quot;data&quot;:&quot;-0.5|0.5&quot;,&quot;param&quot;:&quot;#E83636&quot;,&quot;tag&quot;:&quot;TAG5&quot;},{&quot;data&quot;:&quot;0.5|1.5&quot;,&quot;param&quot;:&quot;#4DC463&quot;,&quot;tag&quot;:&quot;TAG5&quot;}]}"
         y="363.38397"
         style="fill:#4dc463;stroke-width:0.92155594" />
      <rect
         class="cls-14"
         x="26.595324"
         width="34.904133"
         height="136.0092"
         id="rect421-8-1"
         inkscape:label="{&quot;attr&quot;:&quot;color&quot;,&quot;list&quot;:[{&quot;data&quot;:&quot;-0.5|0.5&quot;,&quot;param&quot;:&quot;#8C2A2A&quot;,&quot;tag&quot;:&quot;TAG5&quot;},{&quot;data&quot;:&quot;0.5|1.5&quot;,&quot;param&quot;:&quot;#327F3D&quot;,&quot;tag&quot;:&quot;TAG5&quot;}]}"
         y="363.38397"
         style="fill:#327f3d;stroke-width:0.92155594" />
      <rect
         class="cls-15"
         x="101.63921"
         width="11.952023"
         height="136.0092"
         id="rect423-9-8"
         inkscape:label="{&quot;attr&quot;:&quot;color&quot;,&quot;list&quot;:[{&quot;data&quot;:&quot;-0.5|.5&quot;,&quot;param&quot;:&quot;#8C2A2A&quot;,&quot;tag&quot;:&quot;TAG5&quot;},{&quot;data&quot;:&quot;0.5|1.5&quot;,&quot;param&quot;:&quot;#63EA73&quot;,&quot;tag&quot;:&quot;TAG5&quot;}]}"
         y="363.38397"
         style="fill:#63ea73;stroke-width:0.92155594" />
      <rect
         inkscape:label="{&quot;attr&quot;:&quot;color&quot;,&quot;list&quot;:[{&quot;data&quot;:&quot;-0.5|0.5&quot;,&quot;param&quot;:&quot;#8C2A2A&quot;,&quot;tag&quot;:&quot;TAG5&quot;},{&quot;data&quot;:&quot;0.5|1.5&quot;,&quot;param&quot;:&quot;#327F3D&quot;,&quot;tag&quot;:&quot;TAG5&quot;}]}"
         id="rect459-0-0"
         height="136.0092"
         width="54.799427"
         x="258.43283"
         class="cls-14"
         y="363.38397"
         style="fill:#327f3d;stroke-width:1.15470564" />
    </g>
    <g
       id="g163">
      <rect
         class="cls-13"
         x="26.595312"
         width="286.63699"
         height="114.75305"
         id="rect419-6-0"
         inkscape:label="{&quot;attr&quot;:&quot;color&quot;,&quot;list&quot;:[{&quot;data&quot;:&quot;-0.5|0.5&quot;,&quot;param&quot;:&quot;#E83636&quot;,&quot;tag&quot;:&quot;TAG6&quot;},{&quot;data&quot;:&quot;0.5|1.5&quot;,&quot;param&quot;:&quot;#4DC463&quot;,&quot;tag&quot;:&quot;TAG6&quot;}]}"
         y="248.63091"
         style="fill:#4dc463;stroke-width:0.84648579" />
      <rect
         class="cls-14"
         x="26.595312"
         width="34.904133"
         height="114.75305"
         id="rect421-8-9"
         inkscape:label="{&quot;attr&quot;:&quot;color&quot;,&quot;list&quot;:[{&quot;data&quot;:&quot;-0.5|0.5&quot;,&quot;param&quot;:&quot;#8C2A2A&quot;,&quot;tag&quot;:&quot;TAG6&quot;},{&quot;data&quot;:&quot;0.5|1.5&quot;,&quot;param&quot;:&quot;#327F3D&quot;,&quot;tag&quot;:&quot;TAG6&quot;}]}"
         y="248.63091"
         style="fill:#327f3d;stroke-width:0.84648579" />
      <rect
         class="cls-15"
         x="101.63921"
         width="11.952023"
         height="114.75305"
         id="rect423-9-4"
         inkscape:label="{&quot;attr&quot;:&quot;color&quot;,&quot;list&quot;:[{&quot;data&quot;:&quot;-0.5|.5&quot;,&quot;param&quot;:&quot;#8C2A2A&quot;,&quot;tag&quot;:&quot;TAG6&quot;},{&quot;data&quot;:&quot;0.5|1.5&quot;,&quot;param&quot;:&quot;#63EA73&quot;,&quot;tag&quot;:&quot;TAG6&quot;}]}"
         y="248.63091"
         style="fill:#63ea73;stroke-width:0.84648579" />
      <rect
         inkscape:label="{&quot;attr&quot;:&quot;color&quot;,&quot;list&quot;:[{&quot;data&quot;:&quot;-0.5|0.5&quot;,&quot;param&quot;:&quot;#8C2A2A&quot;,&quot;tag&quot;:&quot;TAG6&quot;},{&quot;data&quot;:&quot;0.5|1.5&quot;,&quot;param&quot;:&quot;#327F3D&quot;,&quot;tag&quot;:&quot;TAG6&quot;}]}"
         id="rect459-0-1"
         height="114.75305"
         width="54.799427"
         x="258.43283"
         class="cls-14"
         y="248.63091"
         style="fill:#327f3d;stroke-width:1.06064308" />
    </g>
  </g>
</svg>
