<?xml version="1.0" encoding="UTF-8" standalone="no"?>
<svg
   xmlns:dc="http://purl.org/dc/elements/1.1/"
   xmlns:cc="http://creativecommons.org/ns#"
   xmlns:rdf="http://www.w3.org/1999/02/22-rdf-syntax-ns#"
   xmlns:svg="http://www.w3.org/2000/svg"
   xmlns="http://www.w3.org/2000/svg"
   xmlns:sodipodi="http://sodipodi.sourceforge.net/DTD/sodipodi-0.dtd"
   xmlns:inkscape="http://www.inkscape.org/namespaces/inkscape"
   viewBox="0 0 1400.97 976.05"
   version="1.1"
   id="svg438"
   sodipodi:docname="sitja7.svg"
   inkscape:version="0.92.4 (e05b578f1, 2019-02-26, custom)">
  <metadata
     id="metadata442">
    <rdf:RDF>
      <cc:Work
         rdf:about="">
        <dc:format>image/svg+xml</dc:format>
        <dc:type
           rdf:resource="http://purl.org/dc/dcmitype/StillImage" />
        <dc:title></dc:title>
      </cc:Work>
    </rdf:RDF>
  </metadata>
  <sodipodi:namedview
     pagecolor="#ffffff"
     bordercolor="#666666"
     borderopacity="1"
     objecttolerance="10"
     gridtolerance="10"
     guidetolerance="10"
     inkscape:pageopacity="0"
     inkscape:pageshadow="2"
     inkscape:window-width="1920"
     inkscape:window-height="1017"
     id="namedview440"
     showgrid="false"
     inkscape:zoom="0.61434"
     inkscape:cx="395.88755"
     inkscape:cy="459.44274"
     inkscape:window-x="-8"
     inkscape:window-y="-8"
     inkscape:window-maximized="1"
     inkscape:current-layer="svg438" />
  <defs
     id="defs229">
    <style
       id="style227">.cls-1{isolation:isolate;}.cls-2,.cls-6,.cls-7{fill:#b8b0ab;}.cls-3{fill:#323537;}.cls-4{fill:#8e8986;}.cls-5{fill:#797673;}.cls-6{mix-blend-mode:multiply;}.cls-7{opacity:0.4;mix-blend-mode:screen;}.cls-8{fill:#cbc7c0;}.cls-12,.cls-9{fill:none;}.cls-9{stroke:#8e8986;stroke-width:9px;}.cls-10,.cls-11,.cls-12,.cls-9{stroke-miterlimit:10;}.cls-10{fill:#fff;}.cls-10,.cls-11,.cls-12{stroke:#000;}.cls-10,.cls-11{stroke-width:4px;}.cls-11,.cls-14{fill:#327f3d;}.cls-12{stroke-width:3px;}.cls-13{fill:#4dc463;}.cls-15{fill:#63ea73;}.cls-16{fill:#e83636;}.cls-17{fill:#8c2a2a;}.cls-18{fill:#ef7b7b;}</style>
  </defs>
  <rect
     style="fill:#000000;fill-opacity:1;stroke-width:1.70905805"
     id="rect801"
     width="1401.504"
     height="973.40234"
     x="1.3776651e-07"
     y="-0.60788214" />
  <flowRoot
     xml:space="preserve"
     id="flowRoot593"
     style="font-style:normal;font-weight:normal;font-size:40px;line-height:1.25;font-family:sans-serif;letter-spacing:0px;word-spacing:0px;fill:#000000;fill-opacity:1;stroke:none"
     transform="matrix(2.0587806,0,0,1.9158542,279.08612,-1252.553)"><flowRegion
       id="flowRegion595"><rect
         id="rect597"
         width="603.90015"
         height="162.77631"
         x="-110.68789"
         y="1050.9271" /></flowRegion><flowPara
       id="flowPara599"
       style="font-style:normal;font-variant:normal;font-weight:normal;font-stretch:normal;font-family:'Microsoft JhengHei';-inkscape-font-specification:'Microsoft JhengHei';fill:#ffffff">Sitja 1</flowPara></flowRoot>  <flowRoot
     xml:space="preserve"
     id="flowRoot593-3"
     style="font-style:normal;font-weight:normal;font-size:40px;line-height:1.25;font-family:sans-serif;letter-spacing:0px;word-spacing:0px;fill:#000000;fill-opacity:1;stroke:none"
     transform="matrix(2.0587806,0,0,1.9158542,640.19315,-1254.2023)"><flowRegion
       id="flowRegion595-0"><rect
         id="rect597-0"
         width="603.90015"
         height="162.77631"
         x="-110.68789"
         y="1050.9271" /></flowRegion><flowPara
       id="flowPara599-7"
       style="font-style:normal;font-variant:normal;font-weight:normal;font-stretch:normal;font-family:'Microsoft JhengHei';-inkscape-font-specification:'Microsoft JhengHei';fill:#ffffff">Sitja 2 </flowPara></flowRoot>  <flowRoot
     xml:space="preserve"
     id="flowRoot593-3-1"
     style="font-style:normal;font-weight:normal;font-size:40px;line-height:1.25;font-family:sans-serif;letter-spacing:0px;word-spacing:0px;fill:#000000;fill-opacity:1;stroke:none"
     transform="matrix(2.0587806,0,0,1.9158542,471.49626,-1255.8302)"><flowRegion
       id="flowRegion595-0-4"><rect
         id="rect597-0-9"
         width="603.90015"
         height="162.77631"
         x="-110.68789"
         y="1050.9271" /></flowRegion><flowPara
       id="flowPara599-7-3"
       style="font-style:normal;font-variant:normal;font-weight:normal;font-stretch:normal;font-family:'Microsoft JhengHei';-inkscape-font-specification:'Microsoft JhengHei';text-align:center;text-anchor:middle;fill:#ffffff">Sitja</flowPara><flowPara
       style="font-style:normal;font-variant:normal;font-weight:normal;font-stretch:normal;font-family:'Microsoft JhengHei';-inkscape-font-specification:'Microsoft JhengHei';text-align:center;text-anchor:middle;fill:#ffffff"
       id="flowPara653">Biomassa </flowPara></flowRoot>  <flowRoot
     xml:space="preserve"
     id="flowRoot655"
     style="fill:black;fill-opacity:1;stroke:none;font-family:sans-serif;font-style:normal;font-weight:normal;font-size:40px;line-height:1.25;letter-spacing:0px;word-spacing:0px"><flowRegion
       id="flowRegion657"><rect
         id="rect659"
         width="198.5871"
         height="109.06013"
         x="786.20959"
         y="810.01813" /></flowRegion><flowPara
       id="flowPara661"></flowPara></flowRoot>  <g
     inkscape:groupmode="layer"
     id="layer2"
     inkscape:label="Layer 2"
     style="display:inline;opacity:1" />
  <g
     inkscape:groupmode="layer"
     id="layer1"
     inkscape:label="Layer 1"
     style="display:inline" />
  <g
     class="cls-1"
     id="g436"
     transform="matrix(0.75988392,0,0,0.80293523,4.870216,-50.886448)"
     style="isolation:isolate">
    <g
       id="svg2">
      <rect
         class="cls-2"
         x="730.16998"
         y="892.69"
         width="5.5700002"
         height="82.07"
         id="rect231"
         style="fill:#b8b0ab" />
      <path
         class="cls-3"
         d="m 1303,1160.16 h -5.58 c -0.58,0 -1.06,-0.12 -1.06,-0.26 v -82.07 c 0,-0.14 0.48,-0.25 1.06,-0.25 h 5.58 c 0.6,0 1.06,0.11 1.06,0.25 v 82.07 c 0.04,0.1 -0.42,0.26 -1.06,0.26 z m -4.52,-0.51 h 3.52 v -81.57 h -3.46 z"
         transform="translate(-567.3,-185.15)"
         id="path233"
         inkscape:connector-curvature="0"
         style="fill:#323537" />
      <rect
         class="cls-2"
         x="763.03003"
         y="892.69"
         width="5.5799999"
         height="82.07"
         id="rect235"
         style="fill:#b8b0ab" />
      <path
         class="cls-3"
         d="m 1335.91,1160.16 h -5.58 c -0.59,0 -1.06,-0.12 -1.06,-0.26 v -82.07 c 0,-0.14 0.47,-0.25 1.06,-0.25 h 5.58 c 0.59,0 1.06,0.11 1.06,0.25 v 82.07 c 0.03,0.1 -0.47,0.26 -1.06,0.26 z m -4.53,-0.51 h 3.47 v -81.57 h -3.47 z"
         transform="translate(-567.3,-185.15)"
         id="path237"
         inkscape:connector-curvature="0"
         style="fill:#323537" />
      <rect
         class="cls-4"
         x="727.33002"
         y="973.81"
         width="44.119999"
         height="1.99"
         id="rect239"
         style="fill:#8e8986" />
      <path
         class="cls-3"
         d="m 1338.74,1161.2 h -44.11 c -0.59,0 -1.06,-0.12 -1.06,-0.26 v -2 c 0,-0.14 0.47,-0.26 1.06,-0.26 h 44.11 c 0.59,0 1.07,0.12 1.07,0.26 v 2 c 0,0.14 -0.48,0.26 -1.07,0.26 z m -43,-0.51 h 42 v -1.48 h -42 z"
         transform="translate(-567.3,-185.15)"
         id="path241"
         inkscape:connector-curvature="0"
         style="fill:#323537" />
      <rect
         class="cls-2"
         x="630.45001"
         y="892.69"
         width="5.5700002"
         height="82.07"
         id="rect243"
         style="fill:#b8b0ab" />
      <path
         class="cls-3"
         d="m 1203.32,1160.16 h -5.58 c -0.58,0 -1.06,-0.12 -1.06,-0.26 v -82.07 c 0,-0.14 0.48,-0.25 1.06,-0.25 h 5.58 c 0.59,0 1.07,0.11 1.07,0.25 v 82.07 c 0,0.1 -0.48,0.26 -1.07,0.26 z m -4.52,-0.51 h 3.47 v -81.57 h -3.47 z"
         transform="translate(-567.3,-185.15)"
         id="path245"
         inkscape:connector-curvature="0"
         style="fill:#323537" />
      <rect
         class="cls-2"
         x="663.31"
         y="892.69"
         width="5.5799999"
         height="82.07"
         id="rect247"
         style="fill:#b8b0ab" />
      <path
         class="cls-3"
         d="m 1236.19,1160.16 h -5.59 c -0.58,0 -1.06,-0.12 -1.06,-0.26 v -82.07 c 0,-0.14 0.48,-0.25 1.06,-0.25 h 5.59 c 0.58,0 1.06,0.11 1.06,0.25 v 82.07 c 0,0.1 -0.48,0.26 -1.06,0.26 z m -4.53,-0.51 h 3.46 v -81.57 h -3.46 z"
         transform="translate(-567.3,-185.15)"
         id="path249"
         inkscape:connector-curvature="0"
         style="fill:#323537" />
      <rect
         class="cls-4"
         x="627.60999"
         y="973.81"
         width="44.119999"
         height="1.99"
         id="rect251"
         style="fill:#8e8986" />
      <path
         class="cls-3"
         d="m 1239,1161.2 h -44.12 c -0.58,0 -1.06,-0.12 -1.06,-0.26 v -2 c 0,-0.14 0.48,-0.26 1.06,-0.26 H 1239 c 0.58,0 1,0.12 1,0.26 v 2 c 0.08,0.14 -0.39,0.26 -1,0.26 z m -43.06,-0.51 h 42 v -1.48 h -42 z"
         transform="translate(-567.3,-185.15)"
         id="path253"
         inkscape:connector-curvature="0"
         style="fill:#323537" />
      <rect
         class="cls-2"
         x="591.22998"
         y="884.13"
         width="214.49001"
         height="8.5500002"
         id="rect255"
         style="fill:#b8b0ab" />
      <path
         class="cls-5"
         d="m 1373,1078.08 h -214.47 c -0.59,0 -1.07,-0.11 -1.07,-0.25 v -8.55 c 0,-0.14 0.48,-0.25 1.07,-0.25 H 1373 c 0.58,0 1.06,0.11 1.06,0.25 v 8.55 c 0.01,0.17 -0.47,0.25 -1.06,0.25 z m -213.44,-0.5 h 212.37 v -8 h -212.36 z"
         transform="translate(-567.3,-185.15)"
         id="path257"
         inkscape:connector-curvature="0"
         style="fill:#797673" />
      <rect
         class="cls-6"
         x="591.22998"
         y="884.13"
         width="214.49001"
         height="3.29"
         id="rect259"
         style="mix-blend-mode:multiply;fill:#b8b0ab" />
      <rect
         class="cls-2"
         x="601.76001"
         y="892.69"
         width="193.41"
         height="2.0599999"
         id="rect261"
         style="fill:#b8b0ab" />
      <path
         class="cls-5"
         d="m 1362.47,1080.14 h -193.41 c -0.59,0 -1.06,-0.11 -1.06,-0.25 v -2.06 c 0,-0.14 0.47,-0.25 1.06,-0.25 h 193.41 c 0.59,0 1.06,0.11 1.06,0.25 v 2.06 c 0,0.11 -0.47,0.25 -1.06,0.25 z m -192.35,-0.5 h 191.31 v -1.56 h -191.31 z"
         transform="translate(-567.3,-185.15)"
         id="path263"
         inkscape:connector-curvature="0"
         style="fill:#797673" />
      <rect
         class="cls-2"
         x="565.38"
         y="543.33002"
         width="271.07001"
         height="341.45999"
         id="rect265"
         style="fill:#b8b0ab" />
      <path
         class="cls-5"
         d="m 1403.74,1070.84 h -271.07 a 1,1 0 0 1 -1.06,-0.9 V 728.48 a 1,1 0 0 1 1.06,-0.9 h 271.07 a 1,1 0 0 1 1.07,0.9 v 341.46 a 1,1 0 0 1 -1.07,0.9 z m -270,-1.81 h 269 V 729.4 h -269 z"
         transform="translate(-567.3,-185.15)"
         id="path267"
         inkscape:connector-curvature="0"
         style="fill:#797673" />
      <rect
         class="cls-6"
         x="784.71997"
         y="543.33002"
         width="51.720001"
         height="341.45999"
         id="rect269"
         style="mix-blend-mode:multiply;fill:#b8b0ab" />
      <rect
         class="cls-6"
         x="565.38"
         y="543.33002"
         width="33"
         height="341.45999"
         id="rect271"
         style="mix-blend-mode:multiply;fill:#b8b0ab" />
      <rect
         class="cls-7"
         x="636.47998"
         y="543.33002"
         width="11.3"
         height="341.45999"
         id="rect273"
         style="opacity:0.4;mix-blend-mode:screen;fill:#b8b0ab" />
      <polygon
         class="cls-2"
         points="745.28,509.75 662.14,509 662.35,491.83 745.49,492.56 "
         id="polygon275"
         style="fill:#b8b0ab" />
      <path
         class="cls-4"
         d="m 1312.58,695.79 v 0 l -83.13,-0.74 a 1.14,1.14 0 0 1 -0.74,-0.27 0.87,0.87 0 0 1 -0.29,-0.65 l 0.21,-17.18 a 1,1 0 0 1 1.06,-0.89 l 83.13,0.74 a 1.18,1.18 0 0 1 0.75,0.27 0.83,0.83 0 0 1 0.31,0.65 l -0.22,17.18 a 1,1 0 0 1 -1.08,0.89 z m -82.07,-2.55 81,0.73 0.2,-15.36 -81,-0.72 z"
         transform="translate(-567.3,-185.15)"
         id="path277"
         inkscape:connector-curvature="0"
         style="fill:#8e8986" />
      <polygon
         class="cls-8"
         points="660.46,500.21 565.38,543.33 836.48,543.33 747.66,501 710.35,500.66 697.78,500.55 "
         id="polygon279"
         style="fill:#cbc7c0" />
      <path
         class="cls-4"
         d="m 1403.78,729.4 h -271.11 a 1.07,1.07 0 0 1 -1,-0.7 0.87,0.87 0 0 1 0.55,-1 l 95.07,-43.13 a 1.57,1.57 0 0 1 0.5,-0.11 l 87.21,0.79 a 1.12,1.12 0 0 1 0.51,0.11 l 88.81,42.35 a 0.88,0.88 0 0 1 0.51,1 1.07,1.07 0 0 1 -1.05,0.69 z m -266.84,-1.82 h 262.75 l -85,-40.55 -86.66,-0.76 z"
         transform="translate(-567.3,-185.15)"
         id="path281"
         inkscape:connector-curvature="0"
         style="fill:#8e8986" />
      <path
         class="cls-6"
         d="m 1352,728.48 h 51.76 l -88.76,-42.34 -9.68,-0.09 c 8.45,7.95 40,36.64 46.68,42.43 z"
         transform="translate(-567.3,-185.15)"
         id="path283"
         inkscape:connector-curvature="0"
         style="mix-blend-mode:multiply;fill:#b8b0ab" />
      <path
         class="cls-6"
         d="m 1228.6,690.77 c 3,-1.74 6.18,-3.45 9.24,-5.32 l -10.08,-0.09 -95.09,43.12 h 32.42 c 2.54,-1.61 54.72,-32.58 63.51,-37.71 z"
         transform="translate(-567.3,-185.15)"
         id="path285"
         inkscape:connector-curvature="0"
         style="mix-blend-mode:multiply;fill:#b8b0ab" />
      <polygon
         class="cls-2"
         points="279.01,324.35 163.28,323.31 163.58,299.41 279.31,300.44 "
         id="polygon287"
         style="fill:#b8b0ab" />
      <path
         class="cls-4"
         d="m 846.3,510.75 v 0 l -115.72,-1 a 1.59,1.59 0 0 1 -1,-0.37 1.26,1.26 0 0 1 -0.41,-0.91 l 0.3,-23.91 a 1.35,1.35 0 0 1 1.48,-1.24 l 115.7,1 a 1.66,1.66 0 0 1 1,0.38 1.18,1.18 0 0 1 0.43,0.91 l -0.3,23.91 a 1.37,1.37 0 0 1 -1.48,1.23 z m -114.22,-3.54 112.76,1 0.27,-21.37 -112.77,-1 z"
         transform="translate(-567.3,-185.15)"
         id="path289"
         inkscape:connector-curvature="0"
         style="fill:#8e8986" />
      <polygon
         class="cls-8"
         points="160.94,311.09 28.59,371.1 405.96,371.1 282.33,312.17 230.39,311.7 212.89,311.55 "
         id="polygon291"
         style="fill:#cbc7c0" />
      <path
         class="cls-4"
         d="M 973.25,557.53 H 595.89 a 1.49,1.49 0 0 1 -1.44,-1 1.22,1.22 0 0 1 0.76,-1.43 l 132.34,-60 a 2.1,2.1 0 0 1 0.7,-0.16 l 121.39,1.1 a 1.41,1.41 0 0 1 0.7,0.16 L 974,555.15 a 1.23,1.23 0 0 1 0.72,1.43 1.5,1.5 0 0 1 -1.47,0.95 z M 601.83,555 H 967.56 L 849.23,498.56 728.6,497.5 Z"
         transform="translate(-567.3,-185.15)"
         id="path293"
         inkscape:connector-curvature="0"
         style="fill:#8e8986" />
      <path
         class="cls-6"
         d="m 901.21,556.25 h 72 l -123.58,-58.93 -13.47,-0.13 c 11.84,11.06 55.72,51.01 65.05,59.06 z"
         transform="translate(-567.3,-185.15)"
         id="path295"
         inkscape:connector-curvature="0"
         style="mix-blend-mode:multiply;fill:#b8b0ab" />
      <path
         class="cls-6"
         d="m 729.42,503.77 c 4.16,-2.43 8.6,-4.81 12.86,-7.41 l -14,-0.13 -132.35,60 H 641 c 3.54,-2.23 76.18,-45.32 88.42,-52.46 z"
         transform="translate(-567.3,-185.15)"
         id="path297"
         inkscape:connector-curvature="0"
         style="mix-blend-mode:multiply;fill:#b8b0ab" />
      <rect
         class="cls-2"
         x="1160.24"
         y="892.69"
         width="5.5700002"
         height="82.07"
         id="rect299"
         style="fill:#b8b0ab" />
      <path
         class="cls-3"
         d="m 1733.12,1160.16 h -5.58 c -0.58,0 -1.06,-0.12 -1.06,-0.26 v -82.07 c 0,-0.14 0.48,-0.25 1.06,-0.25 h 5.58 c 0.6,0 1.06,0.11 1.06,0.25 v 82.07 c 0,0.1 -0.46,0.26 -1.06,0.26 z m -4.52,-0.51 h 3.46 v -81.57 h -3.46 z"
         transform="translate(-567.3,-185.15)"
         id="path301"
         inkscape:connector-curvature="0"
         style="fill:#323537" />
      <rect
         class="cls-2"
         x="1193.11"
         y="892.69"
         width="5.5799999"
         height="82.07"
         id="rect303"
         style="fill:#b8b0ab" />
      <path
         class="cls-3"
         d="m 1766,1160.16 h -5.58 c -0.59,0 -1.06,-0.12 -1.06,-0.26 v -82.07 c 0,-0.14 0.47,-0.25 1.06,-0.25 h 5.58 c 0.59,0 1.06,0.11 1.06,0.25 v 82.07 c -0.01,0.1 -0.48,0.26 -1.06,0.26 z m -4.53,-0.51 h 3.47 v -81.57 h -3.47 z"
         transform="translate(-567.3,-185.15)"
         id="path305"
         inkscape:connector-curvature="0"
         style="fill:#323537" />
      <rect
         class="cls-4"
         x="1157.41"
         y="973.81"
         width="44.119999"
         height="1.99"
         id="rect307"
         style="fill:#8e8986" />
      <path
         class="cls-3"
         d="m 1768.82,1161.2 h -44.11 c -0.59,0 -1.06,-0.12 -1.06,-0.26 v -2 c 0,-0.14 0.47,-0.26 1.06,-0.26 h 44.11 c 0.59,0 1.07,0.12 1.07,0.26 v 2 c 0,0.14 -0.48,0.26 -1.07,0.26 z m -43,-0.51 h 42 v -1.48 h -42 z"
         transform="translate(-567.3,-185.15)"
         id="path309"
         inkscape:connector-curvature="0"
         style="fill:#323537" />
      <rect
         class="cls-2"
         x="1060.53"
         y="892.69"
         width="5.5700002"
         height="82.07"
         id="rect311"
         style="fill:#b8b0ab" />
      <path
         class="cls-3"
         d="m 1633.4,1160.16 h -5.58 c -0.58,0 -1.06,-0.12 -1.06,-0.26 v -82.07 c 0,-0.14 0.48,-0.25 1.06,-0.25 h 5.58 c 0.59,0 1.07,0.11 1.07,0.25 v 82.07 c 0,0.1 -0.47,0.26 -1.07,0.26 z m -4.52,-0.51 h 3.47 v -81.57 h -3.47 z"
         transform="translate(-567.3,-185.15)"
         id="path313"
         inkscape:connector-curvature="0"
         style="fill:#323537" />
      <rect
         class="cls-2"
         x="1093.39"
         y="892.69"
         width="5.5799999"
         height="82.07"
         id="rect315"
         style="fill:#b8b0ab" />
      <path
         class="cls-3"
         d="m 1666.26,1160.16 h -5.58 c -0.58,0 -1.06,-0.12 -1.06,-0.26 v -82.07 c 0,-0.14 0.48,-0.25 1.06,-0.25 h 5.58 c 0.59,0 1.07,0.11 1.07,0.25 v 82.07 c 0,0.1 -0.48,0.26 -1.07,0.26 z m -4.52,-0.51 h 3.45 v -81.57 h -3.45 z"
         transform="translate(-567.3,-185.15)"
         id="path317"
         inkscape:connector-curvature="0"
         style="fill:#323537" />
      <rect
         class="cls-4"
         x="1057.6899"
         y="973.81"
         width="44.119999"
         height="1.99"
         id="rect319"
         style="fill:#8e8986" />
      <path
         class="cls-3"
         d="M 1669.11,1161.2 H 1625 c -0.58,0 -1.06,-0.12 -1.06,-0.26 v -2 c 0,-0.14 0.48,-0.26 1.06,-0.26 h 44.12 c 0.58,0 1.05,0.12 1.05,0.26 v 2 c -0.01,0.14 -0.48,0.26 -1.06,0.26 z m -43.06,-0.51 h 42 v -1.48 h -42 z"
         transform="translate(-567.3,-185.15)"
         id="path321"
         inkscape:connector-curvature="0"
         style="fill:#323537" />
      <rect
         class="cls-2"
         x="1021.31"
         y="884.13"
         width="214.49001"
         height="8.5500002"
         id="rect323"
         style="fill:#b8b0ab" />
      <path
         class="cls-5"
         d="M 1803.09,1078.08 H 1588.6 c -0.58,0 -1.06,-0.11 -1.06,-0.25 v -8.55 c 0,-0.14 0.48,-0.25 1.06,-0.25 h 214.49 c 0.58,0 1.06,0.11 1.06,0.25 v 8.55 c 0,0.17 -0.48,0.25 -1.06,0.25 z m -213.44,-0.5 H 1802 v -8 h -212.35 z"
         transform="translate(-567.3,-185.15)"
         id="path325"
         inkscape:connector-curvature="0"
         style="fill:#797673" />
      <rect
         class="cls-6"
         x="1021.31"
         y="884.13"
         width="214.49001"
         height="3.29"
         id="rect327"
         style="mix-blend-mode:multiply;fill:#b8b0ab" />
      <rect
         class="cls-2"
         x="1031.84"
         y="892.69"
         width="193.41"
         height="2.0599999"
         id="rect329"
         style="fill:#b8b0ab" />
      <path
         class="cls-5"
         d="m 1792.55,1080.14 h -193.41 c -0.6,0 -1.07,-0.11 -1.07,-0.25 v -2.06 c 0,-0.14 0.47,-0.25 1.07,-0.25 h 193.41 c 0.59,0 1.06,0.11 1.06,0.25 v 2.06 c 0,0.11 -0.47,0.25 -1.06,0.25 z m -192.35,-0.5 h 191.3 v -1.56 h -191.3 z"
         transform="translate(-567.3,-185.15)"
         id="path331"
         inkscape:connector-curvature="0"
         style="fill:#797673" />
      <rect
         class="cls-2"
         x="995.45001"
         y="543.33002"
         width="271.07001"
         height="341.45999"
         id="rect333"
         style="fill:#b8b0ab" />
      <path
         class="cls-5"
         d="m 1833.82,1070.84 h -271.07 a 1,1 0 0 1 -1.06,-0.9 V 728.48 a 1,1 0 0 1 1.06,-0.9 h 271.07 a 1,1 0 0 1 1.07,0.9 v 341.46 a 1,1 0 0 1 -1.07,0.9 z m -270,-1.81 h 269 V 729.4 h -269 z"
         transform="translate(-567.3,-185.15)"
         id="path335"
         inkscape:connector-curvature="0"
         style="fill:#797673" />
      <rect
         class="cls-6"
         x="1214.8"
         y="543.33002"
         width="51.720001"
         height="341.45999"
         id="rect337"
         style="mix-blend-mode:multiply;fill:#b8b0ab" />
      <rect
         class="cls-6"
         x="995.45001"
         y="543.33002"
         width="33"
         height="341.45999"
         id="rect339"
         style="mix-blend-mode:multiply;fill:#b8b0ab" />
      <rect
         class="cls-7"
         x="1066.5601"
         y="543.33002"
         width="11.3"
         height="341.45999"
         id="rect341"
         style="opacity:0.4;mix-blend-mode:screen;fill:#b8b0ab" />
      <polygon
         class="cls-2"
         points="1175.36,509.75 1092.22,509 1092.43,491.83 1175.57,492.56 "
         id="polygon343"
         style="fill:#b8b0ab" />
      <path
         class="cls-4"
         d="m 1742.65,695.79 v 0 l -83.13,-0.74 a 1.14,1.14 0 0 1 -0.74,-0.27 0.87,0.87 0 0 1 -0.29,-0.65 l 0.21,-17.18 a 1,1 0 0 1 1.06,-0.89 l 83.13,0.74 a 1.18,1.18 0 0 1 0.75,0.27 0.85,0.85 0 0 1 0.3,0.65 l -0.21,17.18 a 1,1 0 0 1 -1.08,0.89 z m -82.06,-2.55 81,0.73 0.2,-15.36 -81,-0.72 z"
         transform="translate(-567.3,-185.15)"
         id="path345"
         inkscape:connector-curvature="0"
         style="fill:#8e8986" />
      <polygon
         class="cls-8"
         points="1090.54,500.21 995.46,543.33 1266.56,543.33 1177.74,501 1140.43,500.66 1127.86,500.55 "
         id="polygon347"
         style="fill:#cbc7c0" />
      <path
         class="cls-4"
         d="m 1833.86,729.4 h -271.11 a 1.07,1.07 0 0 1 -1,-0.7 0.86,0.86 0 0 1 0.55,-1 l 95.07,-43.13 a 1.51,1.51 0 0 1 0.5,-0.11 l 87.21,0.79 a 1.12,1.12 0 0 1 0.51,0.11 l 88.81,42.35 a 0.88,0.88 0 0 1 0.51,1 1.08,1.08 0 0 1 -1.05,0.69 z M 1567,727.58 h 262.75 l -85,-40.55 -86.66,-0.76 z"
         transform="translate(-567.3,-185.15)"
         id="path349"
         inkscape:connector-curvature="0"
         style="fill:#8e8986" />
      <path
         class="cls-6"
         d="m 1782.1,728.48 h 51.76 l -88.86,-42.34 -9.68,-0.09 c 8.53,7.95 40.08,36.64 46.78,42.43 z"
         transform="translate(-567.3,-185.15)"
         id="path351"
         inkscape:connector-curvature="0"
         style="mix-blend-mode:multiply;fill:#b8b0ab" />
      <path
         class="cls-6"
         d="m 1658.68,690.77 c 3,-1.74 6.18,-3.45 9.24,-5.32 l -10.09,-0.09 -95.08,43.12 h 32.42 c 2.54,-1.61 54.72,-32.58 63.51,-37.71 z"
         transform="translate(-567.3,-185.15)"
         id="path353"
         inkscape:connector-curvature="0"
         style="mix-blend-mode:multiply;fill:#b8b0ab" />
      <rect
         class="cls-2"
         x="257.98999"
         y="859.96002"
         width="7.7600002"
         height="114.25"
         id="rect355"
         style="fill:#b8b0ab" />
      <path
         class="cls-3"
         d="m 833.05,1159.7 h -7.76 c -0.82,0 -1.48,-0.16 -1.48,-0.35 V 1045.1 c 0,-0.19 0.66,-0.35 1.48,-0.35 h 7.76 c 0.83,0 1.48,0.16 1.48,0.35 v 114.25 c 0,0.19 -0.65,0.35 -1.48,0.35 z m -6.28,-0.7 h 4.81 v -113.55 h -4.81 z"
         transform="translate(-567.3,-185.15)"
         id="path357"
         inkscape:connector-curvature="0"
         style="fill:#323537" />
      <rect
         class="cls-2"
         x="303.73999"
         y="859.96002"
         width="7.77"
         height="114.25"
         id="rect359"
         style="fill:#b8b0ab" />
      <path
         class="cls-3"
         d="M 878.81,1159.7 H 871 c -0.81,0 -1.48,-0.16 -1.48,-0.35 V 1045.1 c 0,-0.19 0.67,-0.35 1.48,-0.35 h 7.77 c 0.82,0 1.48,0.16 1.48,0.35 v 114.25 c 0.04,0.19 -0.62,0.35 -1.44,0.35 z m -6.3,-0.7 h 4.82 v -113.55 h -4.82 z"
         transform="translate(-567.3,-185.15)"
         id="path361"
         inkscape:connector-curvature="0"
         style="fill:#323537" />
      <rect
         class="cls-4"
         x="254.05"
         y="972.89001"
         width="61.41"
         height="2.77"
         id="rect363"
         style="fill:#8e8986" />
      <path
         class="cls-3"
         d="m 882.76,1161.15 h -61.42 c -0.81,0 -1.48,-0.16 -1.48,-0.35 v -2.8 c 0,-0.19 0.67,-0.35 1.48,-0.35 h 61.42 c 0.81,0 1.47,0.16 1.47,0.35 v 2.77 c 0,0.23 -0.66,0.38 -1.47,0.38 z m -59.94,-0.7 h 58.46 v -2.07 h -58.46 z"
         transform="translate(-567.3,-185.15)"
         id="path365"
         inkscape:connector-curvature="0"
         style="fill:#323537" />
      <rect
         class="cls-2"
         x="119.18"
         y="859.96002"
         width="7.7600002"
         height="114.25"
         id="rect367"
         style="fill:#b8b0ab" />
      <path
         class="cls-3"
         d="m 694.23,1159.7 h -7.76 c -0.81,0 -1.47,-0.16 -1.47,-0.35 V 1045.1 c 0,-0.19 0.66,-0.35 1.47,-0.35 h 7.76 c 0.83,0 1.49,0.16 1.49,0.35 v 114.25 c 0,0.19 -0.66,0.35 -1.49,0.35 z m -6.29,-0.7 h 4.84 v -113.55 h -4.84 z"
         transform="translate(-567.3,-185.15)"
         id="path369"
         inkscape:connector-curvature="0"
         style="fill:#323537" />
      <rect
         class="cls-2"
         x="164.92"
         y="859.96002"
         width="7.77"
         height="114.25"
         id="rect371"
         style="fill:#b8b0ab" />
      <path
         class="cls-3"
         d="m 740,1159.7 h -7.77 c -0.82,0 -1.48,-0.16 -1.48,-0.35 V 1045.1 c 0,-0.19 0.66,-0.35 1.48,-0.35 H 740 c 0.81,0 1.48,0.16 1.48,0.35 v 114.25 c -0.01,0.19 -0.68,0.35 -1.48,0.35 z m -6.3,-0.7 h 4.81 v -113.55 h -4.81 z"
         transform="translate(-567.3,-185.15)"
         id="path373"
         inkscape:connector-curvature="0"
         style="fill:#323537" />
      <rect
         class="cls-4"
         x="115.23"
         y="972.89001"
         width="61.41"
         height="2.77"
         id="rect375"
         style="fill:#8e8986" />
      <path
         class="cls-3"
         d="m 743.94,1161.15 h -61.41 c -0.81,0 -1.48,-0.16 -1.48,-0.35 v -2.8 c 0,-0.19 0.67,-0.35 1.48,-0.35 h 61.41 c 0.82,0 1.47,0.16 1.47,0.35 v 2.77 c 0,0.23 -0.65,0.38 -1.47,0.38 z m -59.94,-0.7 h 58.46 v -2.07 H 684 Z"
         transform="translate(-567.3,-185.15)"
         id="path377"
         inkscape:connector-curvature="0"
         style="fill:#323537" />
      <rect
         class="cls-2"
         x="64.580002"
         y="848.04999"
         width="298.57999"
         height="11.91"
         id="rect379"
         style="fill:#b8b0ab" />
      <path
         class="cls-5"
         d="M 930.46,1045.45 H 631.88 c -0.81,0 -1.48,-0.15 -1.48,-0.35 v -11.9 c 0,-0.2 0.67,-0.36 1.48,-0.36 h 298.58 c 0.8,0 1.47,0.16 1.47,0.36 v 11.9 c 0,0.2 -0.67,0.35 -1.47,0.35 z m -297.12,-0.7 H 929 v -11.2 H 633.34 Z"
         transform="translate(-567.3,-185.15)"
         id="path381"
         inkscape:connector-curvature="0"
         style="fill:#797673" />
      <rect
         class="cls-6"
         x="64.580002"
         y="848.04999"
         width="298.57999"
         height="4.5799999"
         id="rect383"
         style="mix-blend-mode:multiply;fill:#b8b0ab" />
      <rect
         class="cls-2"
         x="79.25"
         y="859.96002"
         width="269.25"
         height="2.8699999"
         id="rect385"
         style="fill:#b8b0ab" />
      <path
         class="cls-5"
         d="M 915.79,1048.32 H 646.54 c -0.82,0 -1.48,-0.15 -1.48,-0.35 v -2.87 c 0,-0.19 0.66,-0.35 1.48,-0.35 h 269.25 c 0.81,0 1.48,0.16 1.48,0.35 v 2.9 c 0,0.17 -0.67,0.32 -1.48,0.32 z m -267.77,-0.7 h 266.31 v -2.17 H 648 Z"
         transform="translate(-567.3,-185.15)"
         id="path387"
         inkscape:connector-curvature="0"
         style="fill:#797673" />
      <rect
         class="cls-2"
         x="28.59"
         y="373.63"
         width="377.34"
         height="475.34"
         id="rect389"
         style="fill:#b8b0ab" />
      <path
         class="cls-5"
         d="M 973.23,1035.37 H 595.89 a 1.39,1.39 0 0 1 -1.48,-1.26 V 558.78 a 1.38,1.38 0 0 1 1.48,-1.25 h 377.34 a 1.37,1.37 0 0 1 1.49,1.25 v 475.33 a 1.38,1.38 0 0 1 -1.49,1.26 z m -375.86,-2.53 h 374.4 V 560.06 h -374.4 z"
         transform="translate(-567.3,-185.15)"
         id="path391"
         inkscape:connector-curvature="0"
         style="fill:#797673" />
      <rect
         class="cls-6"
         x="333.94"
         y="373.63"
         width="72"
         height="475.34"
         id="rect393"
         style="mix-blend-mode:multiply;fill:#b8b0ab" />
      <rect
         class="cls-6"
         x="28.59"
         y="373.63"
         width="45.939999"
         height="475.34"
         id="rect395"
         style="mix-blend-mode:multiply;fill:#b8b0ab" />
      <rect
         class="cls-7"
         x="127.58"
         y="373.63"
         width="15.73"
         height="475.34"
         id="rect397"
         style="opacity:0.4;mix-blend-mode:screen;fill:#b8b0ab" />
      <line
         class="cls-9"
         x1="221.3"
         y1="298.64999"
         x2="221.3"
         y2="254.24001"
         id="line399"
         style="fill:none;stroke:#8e8986;stroke-width:9px;stroke-miterlimit:10" />
      <line
         class="cls-9"
         x1="703.82001"
         y1="491.82999"
         x2="703.82001"
         y2="447.41"
         id="line401"
         style="fill:none;stroke:#8e8986;stroke-width:9px;stroke-miterlimit:10" />
      <polyline
         class="cls-9"
         points="0 134.5 703.82 134.5 703.82 348"
         id="polyline403"
         style="fill:none;stroke:#8e8986;stroke-width:9px;stroke-miterlimit:10" />
      <polygon
         class="cls-10"
         points="669.11,447.42 737.36,447.42 669.11,348 737.36,348 "
         id="polygon405"
         style="fill:#ffffff;stroke:#000000;stroke-width:4px;stroke-miterlimit:10" />
      <line
         class="cls-11"
         x1="657.28998"
         y1="397.70999"
         x2="703.22998"
         y2="397.70999"
         id="line407"
         style="fill:#327f3d;stroke:#000000;stroke-width:4px;stroke-miterlimit:10" />
      <rect
         class="cls-12"
         x="1176.3"
         y="569.71002"
         width="70.279999"
         height="26.290001"
         transform="rotate(-90,835.22,773.93)"
         id="rect409"
         style="fill:none;stroke:#000000;stroke-width:3px;stroke-miterlimit:10" />
      <line
         class="cls-9"
         x1="221.28"
         y1="154.82001"
         x2="221.28"
         y2="134.5"
         id="line411"
         style="fill:none;stroke:#8e8986;stroke-width:9px;stroke-miterlimit:10" />
      <polygon
         class="cls-10"
         points="187.15,254.24 255.41,254.24 187.15,154.82 255.41,154.82 "
         id="polygon413"
         style="fill:#ffffff;stroke:#000000;stroke-width:4px;stroke-miterlimit:10" />
      <line
         class="cls-11"
         x1="175.33"
         y1="204.53"
         x2="221.28"
         y2="204.53"
         id="line415"
         style="fill:#327f3d;stroke:#000000;stroke-width:4px;stroke-miterlimit:10" />
      <rect
         class="cls-12"
         x="694.34998"
         y="376.53"
         width="70.279999"
         height="26.290001"
         transform="rotate(-90,353.27,580.75)"
         id="rect417"
         style="fill:none;stroke:#000000;stroke-width:3px;stroke-miterlimit:10" />
    </g>
    <rect
       class="cls-13"
       x="565.52997"
       width="271"
       height="169.39"
       id="rect419-4"
       inkscape:label="{&quot;attr&quot;:&quot;color&quot;,&quot;list&quot;:[{&quot;data&quot;:&quot;-0.5|0.5&quot;,&quot;param&quot;:&quot;#E83636&quot;,&quot;tag&quot;:&quot;TAG1&quot;},{&quot;data&quot;:&quot;0.5|1.5&quot;,&quot;param&quot;:&quot;#4DC463&quot;,&quot;tag&quot;:&quot;TAG1&quot;}]}"
       y="715.40002"
       style="fill:#4dc463" />
    <rect
       class="cls-14"
       x="565.52997"
       width="33"
       height="169.39"
       id="rect421-2"
       inkscape:label="{&quot;attr&quot;:&quot;color&quot;,&quot;list&quot;:[{&quot;data&quot;:&quot;-0.5|0.5&quot;,&quot;param&quot;:&quot;#8C2A2A&quot;,&quot;tag&quot;:&quot;TAG1&quot;},{&quot;data&quot;:&quot;0.5|1.5&quot;,&quot;param&quot;:&quot;#327F3D&quot;,&quot;tag&quot;:&quot;TAG1&quot;}]}"
       y="715.40002"
       style="fill:#327f3d" />
    <rect
       class="cls-15"
       x="636.47998"
       width="11.3"
       height="169.39"
       id="rect423-1"
       inkscape:label="{&quot;attr&quot;:&quot;color&quot;,&quot;list&quot;:[{&quot;data&quot;:&quot;-0.5|.5&quot;,&quot;param&quot;:&quot;#8C2A2A&quot;,&quot;tag&quot;:&quot;TAG1&quot;},{&quot;data&quot;:&quot;0.5|1.5&quot;,&quot;param&quot;:&quot;#63EA73&quot;,&quot;tag&quot;:&quot;TAG1&quot;}]}"
       y="715.40002"
       style="fill:#63ea73" />
    <rect
       inkscape:label="{&quot;attr&quot;:&quot;color&quot;,&quot;list&quot;:[{&quot;data&quot;:&quot;-0.5|0.5&quot;,&quot;param&quot;:&quot;#8C2A2A&quot;,&quot;tag&quot;:&quot;TAG1&quot;},{&quot;data&quot;:&quot;0.5|1.5&quot;,&quot;param&quot;:&quot;#327F3D&quot;,&quot;tag&quot;:&quot;TAG1&quot;}]}"
       id="rect459-9"
       height="169.39"
       width="51.809937"
       x="784.71997"
       class="cls-14"
       y="715.40002"
       style="fill:#327f3d;stroke-width:1.25299561" />
  </g>
  <rect
     class="cls-13"
     x="434.60736"
     width="205.92854"
     height="136.0092"
     id="rect419-0"
     inkscape:label="{&quot;attr&quot;:&quot;color&quot;,&quot;list&quot;:[{&quot;data&quot;:&quot;-0.5|0.5&quot;,&quot;param&quot;:&quot;#E83636&quot;,&quot;tag&quot;:&quot;TAG2&quot;},{&quot;data&quot;:&quot;0.5|1.5&quot;,&quot;param&quot;:&quot;#4DC463&quot;,&quot;tag&quot;:&quot;TAG2&quot;}]}"
     y="387.52423"
     style="fill:#4dc463;stroke-width:0.78111303" />
  <rect
     class="cls-14"
     x="434.60736"
     width="25.07617"
     height="136.0092"
     id="rect421-6"
     inkscape:label="{&quot;attr&quot;:&quot;color&quot;,&quot;list&quot;:[{&quot;data&quot;:&quot;-0.5|0.5&quot;,&quot;param&quot;:&quot;#8C2A2A&quot;,&quot;tag&quot;:&quot;TAG2&quot;},{&quot;data&quot;:&quot;0.5|1.5&quot;,&quot;param&quot;:&quot;#327F3D&quot;,&quot;tag&quot;:&quot;TAG2&quot;}]}"
     y="387.52423"
     style="fill:#327f3d;stroke-width:0.78111303" />
  <rect
     class="cls-15"
     x="488.52112"
     width="8.586689"
     height="136.0092"
     id="rect423-4"
     inkscape:label="{&quot;attr&quot;:&quot;color&quot;,&quot;list&quot;:[{&quot;data&quot;:&quot;-0.5|.5&quot;,&quot;param&quot;:&quot;#8C2A2A&quot;,&quot;tag&quot;:&quot;TAG2&quot;},{&quot;data&quot;:&quot;0.5|1.5&quot;,&quot;param&quot;:&quot;#63EA73&quot;,&quot;tag&quot;:&quot;TAG2&quot;}]}"
     y="387.52423"
     style="fill:#63ea73;stroke-width:0.78111303" />
  <rect
     inkscape:label="{&quot;attr&quot;:&quot;color&quot;,&quot;list&quot;:[{&quot;data&quot;:&quot;-0.5|0.5&quot;,&quot;param&quot;:&quot;#8C2A2A&quot;,&quot;tag&quot;:&quot;TAG2&quot;},{&quot;data&quot;:&quot;0.5|1.5&quot;,&quot;param&quot;:&quot;#327F3D&quot;,&quot;tag&quot;:&quot;TAG2&quot;}]}"
     id="rect459-1"
     height="136.0092"
     width="39.369537"
     x="601.16632"
     class="cls-14"
     y="387.52423"
     style="fill:#327f3d;stroke-width:0.97873127" />
  <rect
     class="cls-13"
     x="761.41827"
     width="205.92854"
     height="136.0092"
     id="rect419-7"
     inkscape:label="{&quot;attr&quot;:&quot;color&quot;,&quot;list&quot;:[{&quot;data&quot;:&quot;-0.5|0.5&quot;,&quot;param&quot;:&quot;#E83636&quot;,&quot;tag&quot;:&quot;TAG7&quot;},{&quot;data&quot;:&quot;0.5|1.5&quot;,&quot;param&quot;:&quot;#4DC463&quot;,&quot;tag&quot;:&quot;TAG7&quot;}]}"
     y="523.53345"
     style="fill:#4dc463;stroke-width:0.78111303" />
  <rect
     class="cls-14"
     x="761.41827"
     width="25.07617"
     height="136.0092"
     id="rect421-9"
     inkscape:label="{&quot;attr&quot;:&quot;color&quot;,&quot;list&quot;:[{&quot;data&quot;:&quot;-0.5|0.5&quot;,&quot;param&quot;:&quot;#8C2A2A&quot;,&quot;tag&quot;:&quot;TAG7&quot;},{&quot;data&quot;:&quot;0.5|1.5&quot;,&quot;param&quot;:&quot;#327F3D&quot;,&quot;tag&quot;:&quot;TAG7&quot;}]}"
     y="523.53345"
     style="fill:#327f3d;stroke-width:0.78111303" />
  <rect
     class="cls-15"
     x="815.33203"
     width="8.586689"
     height="136.0092"
     id="rect423-2"
     inkscape:label="{&quot;attr&quot;:&quot;color&quot;,&quot;list&quot;:[{&quot;data&quot;:&quot;-0.5|.5&quot;,&quot;param&quot;:&quot;#8C2A2A&quot;,&quot;tag&quot;:&quot;TAG7&quot;},{&quot;data&quot;:&quot;0.5|1.5&quot;,&quot;param&quot;:&quot;#63EA73&quot;,&quot;tag&quot;:&quot;TAG7&quot;}]}"
     y="523.53345"
     style="fill:#63ea73;stroke-width:0.78111303" />
  <rect
     inkscape:label="{&quot;attr&quot;:&quot;color&quot;,&quot;list&quot;:[{&quot;data&quot;:&quot;-0.5|0.5&quot;,&quot;param&quot;:&quot;#8C2A2A&quot;,&quot;tag&quot;:&quot;TAG7&quot;},{&quot;data&quot;:&quot;0.5|1.5&quot;,&quot;param&quot;:&quot;#327F3D&quot;,&quot;tag&quot;:&quot;TAG7&quot;}]}"
     id="rect459-8"
     height="136.0092"
     width="39.369537"
     x="927.97723"
     class="cls-14"
     y="523.53345"
     style="fill:#327f3d;stroke-width:0.97873127" />
  <rect
     class="cls-13"
     x="761.41827"
     width="205.92854"
     height="138.16107"
     id="rect419-5"
     inkscape:label="{&quot;attr&quot;:&quot;color&quot;,&quot;list&quot;:[{&quot;data&quot;:&quot;-0.5|0.5&quot;,&quot;param&quot;:&quot;#E83636&quot;,&quot;tag&quot;:&quot;TAG8&quot;},{&quot;data&quot;:&quot;0.5|1.5&quot;,&quot;param&quot;:&quot;#4DC463&quot;,&quot;tag&quot;:&quot;TAG8&quot;}]}"
     y="385.37234"
     style="fill:#4dc463;stroke-width:0.78726798" />
  <rect
     class="cls-14"
     x="761.41827"
     width="25.07617"
     height="138.16107"
     id="rect421-97"
     inkscape:label="{&quot;attr&quot;:&quot;color&quot;,&quot;list&quot;:[{&quot;data&quot;:&quot;-0.5|0.5&quot;,&quot;param&quot;:&quot;#8C2A2A&quot;,&quot;tag&quot;:&quot;TAG8&quot;},{&quot;data&quot;:&quot;0.5|1.5&quot;,&quot;param&quot;:&quot;#327F3D&quot;,&quot;tag&quot;:&quot;TAG8&quot;}]}"
     y="385.37234"
     style="fill:#327f3d;stroke-width:0.78726798" />
  <rect
     class="cls-15"
     x="815.33203"
     width="8.586689"
     height="138.16107"
     id="rect423-24"
     inkscape:label="{&quot;attr&quot;:&quot;color&quot;,&quot;list&quot;:[{&quot;data&quot;:&quot;-0.5|.5&quot;,&quot;param&quot;:&quot;#8C2A2A&quot;,&quot;tag&quot;:&quot;TAG8&quot;},{&quot;data&quot;:&quot;0.5|1.5&quot;,&quot;param&quot;:&quot;#63EA73&quot;,&quot;tag&quot;:&quot;TAG8&quot;}]}"
     y="385.37234"
     style="fill:#63ea73;stroke-width:0.78726798" />
  <rect
     inkscape:label="{&quot;attr&quot;:&quot;color&quot;,&quot;list&quot;:[{&quot;data&quot;:&quot;-0.5|0.5&quot;,&quot;param&quot;:&quot;#8C2A2A&quot;,&quot;tag&quot;:&quot;TAG8&quot;},{&quot;data&quot;:&quot;0.5|1.5&quot;,&quot;param&quot;:&quot;#327F3D&quot;,&quot;tag&quot;:&quot;TAG8&quot;}]}"
     id="rect459-91"
     height="138.16107"
     width="39.369537"
     x="927.97723"
     class="cls-14"
     y="385.37234"
     style="fill:#327f3d;stroke-width:0.9864434" />
  <rect
     class="cls-13"
     x="26.595297"
     width="286.63699"
     height="131.38831"
     id="rect419-6"
     inkscape:label="{&quot;attr&quot;:&quot;color&quot;,&quot;list&quot;:[{&quot;data&quot;:&quot;-0.5|0.5&quot;,&quot;param&quot;:&quot;#E83636&quot;,&quot;tag&quot;:&quot;TAG4&quot;},{&quot;data&quot;:&quot;0.5|1.5&quot;,&quot;param&quot;:&quot;#4DC463&quot;,&quot;tag&quot;:&quot;TAG4&quot;}]}"
     y="499.39319"
     style="fill:#4dc463;stroke-width:0.90576589" />
  <rect
     class="cls-14"
     x="26.595297"
     width="34.904133"
     height="131.38831"
     id="rect421-8"
     inkscape:label="{&quot;attr&quot;:&quot;color&quot;,&quot;list&quot;:[{&quot;data&quot;:&quot;-0.5|0.5&quot;,&quot;param&quot;:&quot;#8C2A2A&quot;,&quot;tag&quot;:&quot;TAG4&quot;},{&quot;data&quot;:&quot;0.5|1.5&quot;,&quot;param&quot;:&quot;#327F3D&quot;,&quot;tag&quot;:&quot;TAG4&quot;}]}"
     y="499.39319"
     style="fill:#327f3d;stroke-width:0.90576589" />
  <rect
     class="cls-15"
     x="101.63918"
     width="11.952023"
     height="131.38831"
     id="rect423-9"
     inkscape:label="{&quot;attr&quot;:&quot;color&quot;,&quot;list&quot;:[{&quot;data&quot;:&quot;-0.5|.5&quot;,&quot;param&quot;:&quot;#EF7B7B&quot;,&quot;tag&quot;:&quot;TAG4&quot;},{&quot;data&quot;:&quot;0.5|1.5&quot;,&quot;param&quot;:&quot;#63EA73&quot;,&quot;tag&quot;:&quot;TAG4&quot;}]}"
     y="499.39319"
     style="fill:#63ea73;stroke-width:0.90576589" />
  <rect
     inkscape:label="{&quot;attr&quot;:&quot;color&quot;,&quot;list&quot;:[{&quot;data&quot;:&quot;-0.5|0.5&quot;,&quot;param&quot;:&quot;#8C2A2A&quot;,&quot;tag&quot;:&quot;TAG4&quot;},{&quot;data&quot;:&quot;0.5|1.5&quot;,&quot;param&quot;:&quot;#327F3D&quot;,&quot;tag&quot;:&quot;TAG4&quot;}]}"
     id="rect459-0"
     height="131.38831"
     width="54.799427"
     x="258.43283"
     class="cls-14"
     y="499.39319"
     style="fill:#327f3d;stroke-width:1.1349206" />
  <rect
     class="cls-13"
     x="26.595324"
     width="286.63699"
     height="136.0092"
     id="rect419-6-7"
     inkscape:label="{&quot;attr&quot;:&quot;color&quot;,&quot;list&quot;:[{&quot;data&quot;:&quot;-0.5|0.5&quot;,&quot;param&quot;:&quot;#E83636&quot;,&quot;tag&quot;:&quot;TAG5&quot;},{&quot;data&quot;:&quot;0.5|1.5&quot;,&quot;param&quot;:&quot;#4DC463&quot;,&quot;tag&quot;:&quot;TAG5&quot;}]}"
     y="363.38397"
     style="fill:#4dc463;stroke-width:0.92155594" />
  <rect
     class="cls-14"
     x="26.595324"
     width="34.904133"
     height="136.0092"
     id="rect421-8-1"
     inkscape:label="{&quot;attr&quot;:&quot;color&quot;,&quot;list&quot;:[{&quot;data&quot;:&quot;-0.5|0.5&quot;,&quot;param&quot;:&quot;#8C2A2A&quot;,&quot;tag&quot;:&quot;TAG5&quot;},{&quot;data&quot;:&quot;0.5|1.5&quot;,&quot;param&quot;:&quot;#327F3D&quot;,&quot;tag&quot;:&quot;TAG5&quot;}]}"
     y="363.38397"
     style="fill:#327f3d;stroke-width:0.92155594" />
  <rect
     class="cls-15"
     x="101.63921"
     width="11.952023"
     height="136.0092"
     id="rect423-9-8"
     inkscape:label="{&quot;attr&quot;:&quot;color&quot;,&quot;list&quot;:[{&quot;data&quot;:&quot;-0.5|.5&quot;,&quot;param&quot;:&quot;#8C2A2A&quot;,&quot;tag&quot;:&quot;TAG5&quot;},{&quot;data&quot;:&quot;0.5|1.5&quot;,&quot;param&quot;:&quot;#63EA73&quot;,&quot;tag&quot;:&quot;TAG5&quot;}]}"
     y="363.38397"
     style="fill:#63ea73;stroke-width:0.92155594" />
  <rect
     inkscape:label="{&quot;attr&quot;:&quot;color&quot;,&quot;list&quot;:[{&quot;data&quot;:&quot;-0.5|0.5&quot;,&quot;param&quot;:&quot;#8C2A2A&quot;,&quot;tag&quot;:&quot;TAG5&quot;},{&quot;data&quot;:&quot;0.5|1.5&quot;,&quot;param&quot;:&quot;#327F3D&quot;,&quot;tag&quot;:&quot;TAG5&quot;}]}"
     id="rect459-0-0"
     height="136.0092"
     width="54.799427"
     x="258.43283"
     class="cls-14"
     y="363.38397"
     style="fill:#327f3d;stroke-width:1.15470564" />
  <rect
     class="cls-13"
     x="26.595312"
     width="286.63699"
     height="114.75305"
     id="rect419-6-0"
     inkscape:label="{&quot;attr&quot;:&quot;color&quot;,&quot;list&quot;:[{&quot;data&quot;:&quot;-0.5|0.5&quot;,&quot;param&quot;:&quot;#E83636&quot;,&quot;tag&quot;:&quot;TAG6&quot;},{&quot;data&quot;:&quot;0.5|1.5&quot;,&quot;param&quot;:&quot;#4DC463&quot;,&quot;tag&quot;:&quot;TAG6&quot;}]}"
     y="248.63091"
     style="fill:#4dc463;stroke-width:0.84648579" />
  <rect
     class="cls-14"
     x="26.595312"
     width="34.904133"
     height="114.75305"
     id="rect421-8-9"
     inkscape:label="{&quot;attr&quot;:&quot;color&quot;,&quot;list&quot;:[{&quot;data&quot;:&quot;-0.5|0.5&quot;,&quot;param&quot;:&quot;#8C2A2A&quot;,&quot;tag&quot;:&quot;TAG6&quot;},{&quot;data&quot;:&quot;0.5|1.5&quot;,&quot;param&quot;:&quot;#327F3D&quot;,&quot;tag&quot;:&quot;TAG6&quot;}]}"
     y="248.63091"
     style="fill:#327f3d;stroke-width:0.84648579" />
  <rect
     class="cls-15"
     x="101.63921"
     width="11.952023"
     height="114.75305"
     id="rect423-9-4"
     inkscape:label="{&quot;attr&quot;:&quot;color&quot;,&quot;list&quot;:[{&quot;data&quot;:&quot;-0.5|.5&quot;,&quot;param&quot;:&quot;#8C2A2A&quot;,&quot;tag&quot;:&quot;TAG6&quot;},{&quot;data&quot;:&quot;0.5|1.5&quot;,&quot;param&quot;:&quot;#63EA73&quot;,&quot;tag&quot;:&quot;TAG6&quot;}]}"
     y="248.63091"
     style="fill:#63ea73;stroke-width:0.84648579" />
  <rect
     inkscape:label="{&quot;attr&quot;:&quot;color&quot;,&quot;list&quot;:[{&quot;data&quot;:&quot;-0.5|0.5&quot;,&quot;param&quot;:&quot;#8C2A2A&quot;,&quot;tag&quot;:&quot;TAG6&quot;},{&quot;data&quot;:&quot;0.5|1.5&quot;,&quot;param&quot;:&quot;#327F3D&quot;,&quot;tag&quot;:&quot;TAG6&quot;}]}"
     id="rect459-0-1"
     height="114.75305"
     width="54.799427"
     x="258.43283"
     class="cls-14"
     y="248.63091"
     style="fill:#327f3d;stroke-width:1.06064308" />
</svg>
