<svg id="svg438" xmlns="http://www.w3.org/2000/svg" viewBox="0 0 1166.06 1011.51"><defs><style>.cls-1,.cls-5{fill:#b8b0ab;}.cls-2{fill:#323537;}.cls-3{fill:#8e8986;}.cls-4{fill:#797673;}.cls-5{opacity:0.4;isolation:isolate;}.cls-6{fill:#cbc7c0;}.cls-10,.cls-7,.cls-9{fill:none;}.cls-7{stroke:#8e8986;stroke-width:9px;}.cls-10,.cls-7,.cls-8,.cls-9{stroke-miterlimit:10;}.cls-8{fill:#fff;}.cls-10,.cls-8,.cls-9{stroke:#000;}.cls-8,.cls-9{stroke-width:4px;}.cls-10{stroke-width:3px;}.cls-11{fill:#4dc463;}.cls-12{fill:#327f3d;}.cls-13{fill:#63ea73;}.cls-14{font-size:67px;font-family:SiemensSans-Black, Siemens Sans Black;font-weight:800;}.cls-15{letter-spacing:-0.05em;}.cls-16{letter-spacing:-0.02em;}.cls-17{letter-spacing:-0.01em;}</style></defs><g id="g436"><g id="svg2"><rect id="rect231" class="cls-1" x="637.55" y="666.51" width="4.86" height="71.66"/><path id="path233" class="cls-2" d="M649.64,806.88h-4.88c-.5,0-.92-.1-.92-.23V735c0-.12.42-.21.92-.21h4.88c.52,0,.92.09.92.21v71.66C650.6,806.74,650.2,806.88,649.64,806.88Zm-3.95-.44h3.07V735.21h-3Z" transform="translate(-7.26 -68.49)"/><rect id="rect235" class="cls-1" x="666.24" y="666.51" width="4.87" height="71.66"/><path id="path237" class="cls-2" d="M678.37,806.88H673.5c-.52,0-.93-.1-.93-.23V735c0-.12.41-.21.93-.21h4.87c.52,0,.93.09.93.21v71.66C679.32,806.74,678.89,806.88,678.37,806.88Zm-4-.44h3V735.21h-3Z" transform="translate(-7.26 -68.49)"/><rect id="rect239" class="cls-3" x="635.07" y="737.34" width="38.52" height="1.74"/><path id="path241" class="cls-2" d="M680.84,807.79H642.33c-.52,0-.93-.11-.93-.23v-1.74c0-.13.41-.23.93-.23h38.51c.52,0,.94.1.94.23v1.74C681.78,807.68,681.36,807.79,680.84,807.79Zm-37.54-.45H680v-1.29H643.3Z" transform="translate(-7.26 -68.49)"/><rect id="rect243" class="cls-1" x="550.48" y="666.51" width="4.86" height="71.66"/><path id="path245" class="cls-2" d="M562.6,806.88h-4.87c-.51,0-.93-.1-.93-.23V735c0-.12.42-.21.93-.21h4.87c.52,0,.94.09.94.21v71.66C563.54,806.74,563.12,806.88,562.6,806.88Zm-4-.44h3V735.21h-3Z" transform="translate(-7.26 -68.49)"/><rect id="rect247" class="cls-1" x="579.17" y="666.51" width="4.87" height="71.66"/><path id="path249" class="cls-2" d="M591.3,806.88h-4.88c-.51,0-.93-.1-.93-.23V735c0-.12.42-.21.93-.21h4.88c.51,0,.93.09.93.21v71.66C592.23,806.74,591.81,806.88,591.3,806.88Zm-3.95-.44h3V735.21h-3Z" transform="translate(-7.26 -68.49)"/><rect id="rect251" class="cls-3" x="548" y="737.34" width="38.52" height="1.74"/><path id="path253" class="cls-2" d="M593.76,807.79H555.23c-.5,0-.92-.11-.92-.23v-1.74c0-.13.42-.23.92-.23h38.53c.5,0,.87.1.87.23v1.74C594.7,807.68,594.29,807.79,593.76,807.79Zm-37.6-.45h36.67v-1.29H556.16Z" transform="translate(-7.26 -68.49)"/><rect id="rect255" class="cls-1" x="516.23" y="659.04" width="187.28" height="7.47"/><path id="path257" class="cls-4" d="M710.76,735.21H523.49c-.51,0-.93-.09-.93-.22v-7.46c0-.12.42-.22.93-.22H710.76c.5,0,.92.1.92.22V735C711.69,735.14,711.27,735.21,710.76,735.21Zm-186.37-.43H709.82v-7H524.4Z" transform="translate(-7.26 -68.49)"/><rect id="rect259" class="cls-1" x="516.23" y="659.04" width="187.28" height="2.87"/><rect id="rect261" class="cls-1" x="525.43" y="666.51" width="168.88" height="1.8"/><path id="path263" class="cls-4" d="M701.56,737H532.69c-.52,0-.93-.09-.93-.22V735c0-.12.41-.21.93-.21H701.56c.52,0,.93.09.93.21v1.8C702.49,736.89,702.08,737,701.56,737Zm-167.95-.43h167v-1.37h-167Z" transform="translate(-7.26 -68.49)"/><rect id="rect265" class="cls-1" x="493.66" y="361.47" width="236.68" height="298.15"/><path id="path267" class="cls-4" d="M737.6,728.89H500.91a.87.87,0,0,1-.92-.78V430a.87.87,0,0,1,.92-.79H737.6a.88.88,0,0,1,.93.79V728.11A.86.86,0,0,1,737.6,728.89Zm-235.75-1.58H736.72V430.76H501.85Z" transform="translate(-7.26 -68.49)"/><rect id="rect269" class="cls-1" x="685.18" y="361.47" width="45.16" height="298.15"/><rect id="rect271" class="cls-1" x="493.66" y="361.47" width="28.81" height="298.15"/><rect id="rect273" class="cls-5" x="555.74" y="361.47" width="9.87" height="298.15"/><polygon id="polygon275" class="cls-1" points="650.74 332.15 578.15 331.5 578.33 316.5 650.92 317.14 650.74 332.15"/><path id="path277" class="cls-3" d="M658,401.42h0l-72.58-.65a1,1,0,0,1-.65-.24.75.75,0,0,1-.25-.56l.18-15a.87.87,0,0,1,.93-.78l72.58.65a1.06,1.06,0,0,1,.66.23.74.74,0,0,1,.27.57l-.2,15A.88.88,0,0,1,658,401.42Zm-71.66-2.23,70.73.64.17-13.41-70.72-.63Z" transform="translate(-7.26 -68.49)"/><polygon id="polygon279" class="cls-6" points="730.37 361.47 652.82 324.51 620.24 324.21 609.27 324.12 576.68 323.82 493.66 361.47 730.37 361.47"/><path id="path281" class="cls-3" d="M737.63,430.76H500.91a.92.92,0,0,1-.87-.61.75.75,0,0,1,.48-.87l83-37.66a1.34,1.34,0,0,1,.44-.1l76.14.69a1,1,0,0,1,.45.1l77.54,37a.76.76,0,0,1,.45.87A.92.92,0,0,1,737.63,430.76Zm-233-1.59H734.06l-74.22-35.4-75.66-.67Z" transform="translate(-7.26 -68.49)"/><path id="path283" class="cls-1" d="M692.42,430h45.2l-77.51-37-8.45-.08C659,399.85,686.59,424.9,692.42,430Z" transform="translate(-7.26 -68.49)"/><path id="path285" class="cls-1" d="M584.67,397c2.62-1.52,5.4-3,8.07-4.64l-8.8-.08-83,37.65h28.31C531.44,428.55,577,401.51,584.67,397Z" transform="translate(-7.26 -68.49)"/><polygon id="polygon287" class="cls-1" points="243.62 170.27 142.57 169.36 142.83 148.49 243.88 149.39 243.62 170.27"/><path id="path289" class="cls-3" d="M250.87,239.85h0l-101-.87a1.43,1.43,0,0,1-.88-.33,1.08,1.08,0,0,1-.35-.79l.26-20.88a1.17,1.17,0,0,1,1.26-1.08h0l101,.87a1.49,1.49,0,0,1,.88.33,1.06,1.06,0,0,1,.37.8l-.26,20.87A1.2,1.2,0,0,1,250.87,239.85Zm-99.73-3.09,98.45.87.24-18.66-98.47-.87Z" transform="translate(-7.26 -68.49)"/><polygon id="polygon291" class="cls-6" points="354.46 211.09 246.52 159.63 201.16 159.22 185.88 159.09 140.53 158.69 24.96 211.09 354.46 211.09"/><path id="path293" class="cls-3" d="M361.72,280.69H32.22a1.28,1.28,0,0,1-1.25-.87,1.06,1.06,0,0,1,.66-1.25l115.55-52.39a2.16,2.16,0,0,1,.61-.14l106,1a1.43,1.43,0,0,1,.61.14l108,51.48a1.07,1.07,0,0,1,.63,1.25A1.3,1.3,0,0,1,361.72,280.69Zm-324.31-2.2H356.75L253.43,229.2l-105.33-.92Z" transform="translate(-7.26 -68.49)"/><path id="path295" class="cls-1" d="M298.81,279.58h62.87l-107.9-51.46L242,228C252.35,237.67,290.67,272.55,298.81,279.58Z" transform="translate(-7.26 -68.49)"/><path id="path297" class="cls-1" d="M148.81,233.75c3.64-2.12,7.51-4.2,11.23-6.47l-12.22-.11L32.26,279.56H71.61C74.7,277.61,138.13,240,148.81,233.75Z" transform="translate(-7.26 -68.49)"/><rect id="rect299" class="cls-1" x="1013.06" y="666.51" width="4.86" height="71.66"/><path id="path301" class="cls-2" d="M1025.2,806.88h-4.88c-.5,0-.92-.1-.92-.23V735c0-.12.42-.21.92-.21h4.88c.52,0,.92.09.92.21v71.66C1026.12,806.74,1025.72,806.88,1025.2,806.88Zm-4-.44h3V735.21h-3Z" transform="translate(-7.26 -68.49)"/><rect id="rect303" class="cls-1" x="1041.76" y="666.51" width="4.87" height="71.66"/><path id="path305" class="cls-2" d="M1053.91,806.88H1049c-.51,0-.92-.1-.92-.23V735c0-.12.41-.21.92-.21h4.88c.51,0,.92.09.92.21v71.66C1054.82,806.74,1054.41,806.88,1053.91,806.88Zm-4-.44h3V735.21h-3Z" transform="translate(-7.26 -68.49)"/><rect id="rect307" class="cls-3" x="1010.59" y="737.34" width="38.52" height="1.74"/><path id="path309" class="cls-2" d="M1056.37,807.79h-38.52c-.51,0-.92-.11-.92-.23v-1.74c0-.13.41-.23.92-.23h38.52c.51,0,.93.1.93.23v1.74C1057.3,807.68,1056.88,807.79,1056.37,807.79Zm-37.55-.45h36.67v-1.29h-36.67Z" transform="translate(-7.26 -68.49)"/><rect id="rect311" class="cls-1" x="926" y="666.51" width="4.86" height="71.66"/><path id="path313" class="cls-2" d="M938.13,806.88h-4.88c-.5,0-.92-.1-.92-.23V735c0-.12.42-.21.92-.21h4.88c.51,0,.93.09.93.21v71.66C939.06,806.74,938.65,806.88,938.13,806.88Zm-4-.44h3V735.21h-3Z" transform="translate(-7.26 -68.49)"/><rect id="rect315" class="cls-1" x="954.69" y="666.51" width="4.87" height="71.66"/><path id="path317" class="cls-2" d="M966.82,806.88H962c-.51,0-.93-.1-.93-.23V735c0-.12.42-.21.93-.21h4.87c.51,0,.93.09.93.21v71.66C967.75,806.74,967.33,806.88,966.82,806.88Zm-4-.44h3V735.21h-3Z" transform="translate(-7.26 -68.49)"/><rect id="rect319" class="cls-3" x="923.52" y="737.34" width="38.52" height="1.74"/><path id="path321" class="cls-2" d="M969.31,807.79H930.79c-.51,0-.92-.11-.92-.23v-1.74c0-.13.41-.23.92-.23h38.52c.51,0,.92.1.92.23v1.74C970.22,807.68,969.81,807.79,969.31,807.79Zm-37.6-.45h36.67v-1.29H931.71Z" transform="translate(-7.26 -68.49)"/><rect id="rect323" class="cls-1" x="891.76" y="659.04" width="187.28" height="7.47"/><path id="path325" class="cls-4" d="M1086.29,735.21H899c-.51,0-.93-.09-.93-.22v-7.46c0-.12.42-.22.93-.22h187.28c.51,0,.93.1.93.22V735C1087.22,735.14,1086.8,735.21,1086.29,735.21Zm-186.36-.43h185.41v-7H899.93Z" transform="translate(-7.26 -68.49)"/><rect id="rect327" class="cls-1" x="891.76" y="659.04" width="187.28" height="2.87"/><rect id="rect329" class="cls-1" x="900.95" y="666.51" width="168.88" height="1.8"/><path id="path331" class="cls-4" d="M1077.09,737H908.21c-.52,0-.93-.09-.93-.22V735c0-.12.41-.21.93-.21h168.88c.51,0,.92.09.92.21v1.8C1078,736.89,1077.6,737,1077.09,737Zm-167.95-.43h167v-1.37h-167Z" transform="translate(-7.26 -68.49)"/><rect id="rect333" class="cls-1" x="869.18" y="361.47" width="236.68" height="298.15"/><path id="path335" class="cls-4" d="M1113.12,728.89H876.44a.88.88,0,0,1-.93-.78V430a.88.88,0,0,1,.93-.79h236.68a.89.89,0,0,1,.94.79V728.11A.87.87,0,0,1,1113.12,728.89Zm-235.75-1.58h234.88V430.76H877.37Z" transform="translate(-7.26 -68.49)"/><rect id="rect337" class="cls-1" x="1060.7" y="361.47" width="45.16" height="298.15"/><rect id="rect339" class="cls-1" x="869.18" y="361.47" width="28.81" height="298.15"/><rect id="rect341" class="cls-5" x="931.27" y="361.47" width="9.87" height="298.15"/><polygon id="polygon343" class="cls-1" points="1026.27 332.15 953.67 331.5 953.86 316.5 1026.45 317.14 1026.27 332.15"/><path id="path345" class="cls-3" d="M1033.52,401.42h0l-72.59-.65a1,1,0,0,1-.64-.24A.73.73,0,0,1,960,400l.19-15a.87.87,0,0,1,.92-.78l72.59.65a1,1,0,0,1,.65.23.73.73,0,0,1,.26.57l-.18,15A.88.88,0,0,1,1033.52,401.42Zm-71.65-2.23,70.72.64.18-13.41L962,385.79Z" transform="translate(-7.26 -68.49)"/><polygon id="polygon347" class="cls-6" points="1105.9 361.47 1028.35 324.51 995.77 324.21 984.79 324.12 952.21 323.82 869.19 361.47 1105.9 361.47"/><path id="path349" class="cls-3" d="M1113.16,430.76H876.44a.94.94,0,0,1-.88-.61.76.76,0,0,1,.48-.87l83-37.66a1.23,1.23,0,0,1,.43-.1l76.15.69a1,1,0,0,1,.44.1l77.55,37a.76.76,0,0,1,.44.87A.92.92,0,0,1,1113.16,430.76Zm-233-1.59h229.42l-74.22-35.4-75.67-.67Z" transform="translate(-7.26 -68.49)"/><path id="path351" class="cls-1" d="M1068,430h45.2l-77.59-37-8.45-.08C1034.57,399.85,1062.11,424.9,1068,430Z" transform="translate(-7.26 -68.49)"/><path id="path353" class="cls-1" d="M960.2,397c2.62-1.52,5.4-3,8.07-4.64l-8.81-.08-83,37.65h28.31C907,428.55,952.52,401.51,960.2,397Z" transform="translate(-7.26 -68.49)"/><rect id="rect355" class="cls-1" x="225.26" y="637.94" width="6.78" height="99.76"/><path id="path357" class="cls-2" d="M239.3,806.48h-6.78c-.71,0-1.29-.14-1.29-.31V706.42c0-.17.58-.31,1.29-.31h6.78c.72,0,1.29.14,1.29.31v99.75C240.59,806.34,240,806.48,239.3,806.48Zm-5.48-.61H238V706.72h-4.2Z" transform="translate(-7.26 -68.49)"/><rect id="rect359" class="cls-1" x="265.21" y="637.94" width="6.78" height="99.76"/><path id="path361" class="cls-2" d="M279.25,806.48h-6.81c-.71,0-1.3-.14-1.3-.31V706.42c0-.17.59-.31,1.3-.31h6.78c.72,0,1.29.14,1.29.31v99.75C280.55,806.34,280,806.48,279.25,806.48Zm-5.5-.61H278V706.72h-4.21Z" transform="translate(-7.26 -68.49)"/><rect id="rect363" class="cls-3" x="221.82" y="736.54" width="53.62" height="2.42"/><path id="path365" class="cls-2" d="M282.7,807.75H229.07c-.7,0-1.29-.14-1.29-.31V805c0-.17.59-.31,1.29-.31H282.7c.71,0,1.29.14,1.29.31v2.41C284,807.61,283.41,807.75,282.7,807.75Zm-52.33-.62h51v-1.8h-51Z" transform="translate(-7.26 -68.49)"/><rect id="rect367" class="cls-1" x="104.06" y="637.94" width="6.78" height="99.76"/><path id="path369" class="cls-2" d="M118.09,806.48h-6.78c-.7,0-1.28-.14-1.28-.31V706.42c0-.17.58-.31,1.28-.31h6.78c.72,0,1.3.14,1.3.31v99.75C119.39,806.34,118.81,806.48,118.09,806.48Zm-5.49-.61h4.22V706.72H112.6Z" transform="translate(-7.26 -68.49)"/><rect id="rect371" class="cls-1" x="144" y="637.94" width="6.78" height="99.76"/><path id="path373" class="cls-2" d="M158.05,806.48h-6.78c-.72,0-1.29-.14-1.29-.31V706.42c0-.17.57-.31,1.29-.31h6.78c.71,0,1.3.14,1.3.31v99.75C159.34,806.34,158.75,806.48,158.05,806.48Zm-5.5-.61h4.2V706.72h-4.2Z" transform="translate(-7.26 -68.49)"/><rect id="rect375" class="cls-3" x="100.61" y="736.54" width="53.62" height="2.42"/><path id="path377" class="cls-2" d="M161.49,807.75H107.87c-.7,0-1.29-.14-1.29-.31V805c0-.17.59-.31,1.29-.31h53.62c.72,0,1.29.14,1.29.31v2.41C162.78,807.61,162.21,807.75,161.49,807.75Zm-52.33-.62h51v-1.8h-51Z" transform="translate(-7.26 -68.49)"/><rect id="rect379" class="cls-1" x="56.39" y="627.54" width="260.71" height="10.4"/><path id="path381" class="cls-4" d="M324.35,706.72H63.65c-.71,0-1.29-.13-1.29-.3V696c0-.18.58-.32,1.29-.32h260.7c.7,0,1.29.14,1.29.32v10.39C325.64,706.59,325.05,706.72,324.35,706.72Zm-259.43-.61H323.08v-9.78H64.92Z" transform="translate(-7.26 -68.49)"/><rect id="rect383" class="cls-1" x="56.39" y="627.54" width="260.71" height="4"/><rect id="rect385" class="cls-1" x="69.2" y="637.94" width="235.1" height="2.51"/><path id="path387" class="cls-4" d="M311.54,709.23H76.45c-.72,0-1.29-.13-1.29-.31v-2.5c0-.17.57-.31,1.29-.31H311.54c.71,0,1.3.14,1.3.31V709C312.84,709.1,312.25,709.23,311.54,709.23Zm-233.8-.61H310.27v-1.9H77.72Z" transform="translate(-7.26 -68.49)"/><rect id="rect389" class="cls-1" x="24.96" y="213.3" width="329.47" height="415.04"/><path id="path391" class="cls-4" d="M361.7,697.92H32.22a1.2,1.2,0,0,1-1.29-1.1v-415a1.21,1.21,0,0,1,1.29-1.1H361.7a1.2,1.2,0,0,1,1.3,1.09h0v415A1.21,1.21,0,0,1,361.7,697.92ZM33.52,695.71h326.9V282.9H33.52Z" transform="translate(-7.26 -68.49)"/><rect id="rect393" class="cls-1" x="291.58" y="213.3" width="62.87" height="415.04"/><rect id="rect395" class="cls-1" x="24.96" y="213.3" width="40.11" height="415.04"/><rect id="rect397" class="cls-5" x="111.4" y="213.3" width="13.73" height="415.04"/><line id="line399" class="cls-7" x1="193.23" y1="147.83" x2="193.23" y2="109.05"/><line id="line401" class="cls-7" x1="614.54" y1="316.5" x2="614.54" y2="277.72"/><polyline id="polyline403" class="cls-7" points="0 4.5 614.54 4.5 614.54 190.92"/><polygon id="polygon405" class="cls-8" points="584.23 277.73 643.83 277.73 584.23 190.92 643.83 190.92 584.23 277.73"/><line id="line407" class="cls-9" x1="573.91" y1="234.32" x2="614.03" y2="234.32"/><rect id="rect409" class="cls-10" x="550.96" y="203.64" width="22.96" height="61.37"/><line id="line411" class="cls-7" x1="193.21" y1="22.24" x2="193.21" y2="4.5"/><polygon id="polygon413" class="cls-8" points="163.41 109.05 223.01 109.05 163.41 22.24 223.01 22.24 163.41 109.05"/><line id="line415" class="cls-9" x1="153.09" y1="65.65" x2="193.21" y2="65.65"/><rect id="rect417" class="cls-10" x="130.14" y="34.96" width="22.96" height="61.37"/></g><rect id="rect419-4" class="cls-11" x="493.79" y="511.71" width="236.62" height="147.9"/><rect id="rect421-2" class="cls-12" x="493.79" y="511.71" width="28.81" height="147.9"/><rect id="rect423-1" class="cls-13" x="555.74" y="511.71" width="9.87" height="147.9"/><rect id="rect459-9" class="cls-12" x="685.18" y="511.71" width="45.24" height="147.9"/></g><rect id="rect419-0" class="cls-11" x="493.79" y="363.81" width="236.62" height="147.9"/><rect id="rect421-6" class="cls-12" x="493.79" y="363.81" width="28.81" height="147.9"/><rect id="rect423-4" class="cls-13" x="555.74" y="363.81" width="9.87" height="147.9"/><rect id="rect459-1" class="cls-12" x="685.18" y="363.81" width="45.24" height="147.9"/><rect id="rect419-7" class="cls-11" x="869.32" y="511.71" width="236.62" height="147.9"/><rect id="rect421-9" class="cls-12" x="869.32" y="511.71" width="28.81" height="147.9"/><rect id="rect423-2" class="cls-13" x="931.27" y="511.71" width="9.87" height="147.9"/><rect id="rect459-8" class="cls-12" x="1060.7" y="511.71" width="45.24" height="147.9"/><rect id="rect419-5" class="cls-11" x="869.32" y="361.47" width="236.62" height="150.24"/><rect id="rect421-97" class="cls-12" x="869.32" y="361.47" width="28.81" height="150.24"/><rect id="rect423-24" class="cls-13" x="931.27" y="361.47" width="9.87" height="150.24"/><rect id="rect459-91" class="cls-12" x="1060.7" y="361.47" width="45.24" height="150.24"/><rect id="rect419-6" class="cls-11" x="24.96" y="485.46" width="329.36" height="142.88"/><rect id="rect421-8" class="cls-12" x="24.96" y="485.46" width="40.11" height="142.88"/><rect id="rect423-9" class="cls-13" x="111.19" y="485.46" width="13.73" height="142.88"/><rect id="rect459-0" class="cls-12" x="291.36" y="485.46" width="62.97" height="142.88"/><rect id="rect419-6-7" class="cls-11" x="24.96" y="337.56" width="329.36" height="147.9"/><rect id="rect421-8-1" class="cls-12" x="24.96" y="337.56" width="40.11" height="147.9"/><rect id="rect423-9-8" class="cls-13" x="111.19" y="337.56" width="13.73" height="147.9"/><rect id="rect459-0-0" class="cls-12" x="291.36" y="337.56" width="62.97" height="147.9"/><rect id="rect419-6-0" class="cls-11" x="24.96" y="212.77" width="329.36" height="124.79"/><rect id="rect421-8-9" class="cls-12" x="24.96" y="212.77" width="40.11" height="124.79"/><rect id="rect423-9-4" class="cls-13" x="111.19" y="212.77" width="13.73" height="124.79"/><rect id="rect459-0-1" class="cls-12" x="291.36" y="212.77" width="62.97" height="124.79"/><text class="cls-14" transform="translate(75.42 816.79)">SI<tspan class="cls-15" x="60.16" y="0">T</tspan><tspan class="cls-16" x="94.84" y="0">J</tspan><tspan x="121.83" y="0">A 2</tspan></text><text class="cls-14" transform="translate(497.69 814.73)">SI<tspan class="cls-15" x="60.16" y="0">T</tspan><tspan class="cls-16" x="94.84" y="0">J</tspan><tspan x="121.83" y="0">A 1</tspan></text><text class="cls-14" transform="translate(908.81 818.6)">SI<tspan class="cls-15" x="60.16" y="0">T</tspan><tspan class="cls-16" x="94.84" y="0">J</tspan><tspan x="121.83" y="0">A </tspan><tspan x="-69.83" y="80.4">Bioma</tspan><tspan class="cls-17" x="135.72" y="80.4">s</tspan><tspan x="167.48" y="80.4">sa</tspan></text></svg>